<svg width="641" height="172" viewBox="0 0 641 172" fill="none" xmlns="http://www.w3.org/2000/svg">
<g clip-path="url(#clip0_450_621)">
<path fill-rule="evenodd" clip-rule="evenodd" d="M346.808 64.3278V121.143H301.988V80.6373C301.988 71.6538 310.517 64.3278 320.973 64.3278H346.809H346.808ZM438.092 64.3278V121.143H482.913V80.6373C482.913 71.6538 474.384 64.3278 463.926 64.3278H438.091H438.092ZM438.092 56.8142H393.042H347.989H322.154C311.697 56.8142 303.168 49.4883 303.168 40.5055V0H347.989L393.041 40.1174L438.091 0H482.912V40.5055C482.912 49.4883 474.384 56.8142 463.926 56.8142H438.091H438.092ZM383.943 93.9925L356.57 64.1689H386.138L429.425 64.3278L402.138 93.9925H393.039H383.943Z" fill="#0EA8C7"/>
<path fill-rule="evenodd" clip-rule="evenodd" d="M580.933 64.1689L640.474 121.142H592.26L532.97 64.4103V104.834C532.97 113.815 524.441 121.142 513.985 121.142H488.15V64.1689H580.933ZM488.15 0H513.985C524.441 0 532.97 7.32633 532.97 16.3087V56.7333L592.26 0H640.474L581.1 56.8142H488.151V0H488.15Z" fill="#0EA8C7"/>
<path fill-rule="evenodd" clip-rule="evenodd" d="M243.733 32.8679V56.8142H198.912V32.8679H145.891V0H198.912H243.733H296.753V32.8679H243.733ZM243.733 121.143H198.912V64.1693H243.733V121.143Z" fill="#0EA8C7"/>
<path d="M83.8228 63.1022L98.8518 67.8911L78.6473 50.3133L71.812 56.2752L61.1629 47.0117L50.4246 56.3788L43.4516 50.3133L22.9531 68.1944L38.0442 63.1601L40.2416 65.2629L30.0718 74.1321L52.9616 66.4975L60.9424 74.1321L69.0165 66.4083L91.8137 73.6722L81.8422 64.9973L83.8228 63.1022Z" fill="#0EA8C7"/>
<path fill-rule="evenodd" clip-rule="evenodd" d="M6.38315 34.2086C9.44638 27.8593 13.4969 22.27 18.2654 17.5481L23.9485 35.3729C22.8542 36.9745 21.8631 38.6506 20.9794 40.3922L6.38315 34.2086ZM18.3191 17.4929C23.3266 12.5477 29.1278 8.55397 35.4127 5.63902L41.361 20.3314C39.6925 21.1424 38.0822 22.0582 36.5358 23.064L18.3195 17.4925L18.3191 17.4929ZM40.9933 3.37962C47.4296 1.13686 54.2532 -0.0285939 61.174 0.000532851L52.5903 16.6198C50.6615 16.9833 48.7751 17.4702 46.9409 18.0724L40.9933 3.38V3.37962ZM61.2497 0.00166766C68.0733 0.0379816 74.9892 1.23521 81.7224 3.70417L75.5403 18.2993C73.8029 17.6983 72.019 17.202 70.192 16.8146L61.2497 0.00166766ZM87.2637 6.05361C93.6141 9.11683 99.2026 13.1651 103.926 17.9335L86.1005 23.6178C84.4981 22.5246 82.8239 21.5313 81.0824 20.6488L87.2637 6.05247V6.05361ZM103.978 17.9884C108.925 22.9959 112.917 28.7941 115.834 35.082L101.142 41.0303C100.33 39.3614 99.4156 37.7503 98.4105 36.2051L103.979 17.9888L103.978 17.9884ZM118.092 40.6615C120.336 47.0989 121.501 53.9236 121.473 60.8433L104.853 52.2596C104.49 50.3297 104.003 48.4444 103.4 46.6098L118.092 40.6615H118.092ZM121.473 60.919C121.436 67.7418 120.239 74.6585 117.77 81.3909L103.174 75.2085C103.775 73.4711 104.27 71.6876 104.659 69.8613L121.473 60.919ZM115.421 86.933C112.358 93.2822 108.306 98.8708 103.539 103.593L97.8548 85.7687C98.948 84.1674 99.941 82.4921 100.825 80.7509L115.421 86.933ZM103.485 103.648C98.4767 108.594 92.6763 112.586 86.3906 115.502L80.4431 100.811C82.112 99.9984 83.7231 99.0838 85.2683 98.0787L103.485 103.648L103.485 103.648ZM80.8108 117.762C74.3745 120.004 67.5509 121.17 60.6289 121.141L69.2126 104.521C71.1418 104.159 73.0282 103.671 74.8625 103.07L80.8108 117.762V117.762ZM60.5544 121.141C53.7308 121.105 46.8153 119.908 40.0828 117.438L46.2641 102.843C48.0012 103.443 49.7851 103.941 51.6125 104.326L60.5544 121.141ZM34.5404 115.089C28.1904 112.025 22.6018 107.977 17.8788 103.208L35.7036 97.523C37.306 98.6181 38.9805 99.6114 40.7236 100.493L34.5404 115.089ZM17.8258 103.152C12.8784 98.1468 8.88578 92.3468 5.97046 86.0599L20.6628 80.1116C21.4738 81.7802 22.3889 83.3901 23.3947 84.9369L17.8254 103.152H17.8258ZM3.71143 80.4801C1.5099 74.163 0.346344 67.4752 0.330078 60.6867V60.4601V60.2975L16.9516 68.882C17.314 70.8123 17.8008 72.6976 18.4031 74.5306L3.71181 80.4801H3.71143ZM0.331213 60.2207C0.367527 53.399 1.56475 46.4835 4.03485 39.751L18.63 45.9342C18.0282 47.6705 17.5338 49.4544 17.1464 51.2807L0.331213 60.2207Z" fill="#0EA8C7"/>
<path d="M2.87372 159.689H0L1.78808 153.01H4.19161L3.09311 159.689H2.87334H2.87372ZM6.80394 159.689H3.93136L5.71717 153.01H8.12259L7.0222 159.689H6.80356H6.80394ZM579.642 152.985H582.517L580.73 159.664H578.325L579.423 152.985H579.642H579.642ZM583.575 152.985H586.446L584.659 159.664H582.255L583.355 152.985H583.575H583.575ZM10.6532 165.059V153.01H13.5292V164.958C13.5292 166.151 13.8791 167.088 14.5766 167.763C14.9265 168.1 15.3483 168.354 15.8423 168.522C16.3439 168.693 16.9242 168.78 17.5786 168.78C18.2356 168.78 18.8174 168.693 19.319 168.522C19.813 168.353 20.2355 168.1 20.5847 167.763C20.9297 167.428 21.1929 167.028 21.3666 166.565C21.5428 166.098 21.6306 165.56 21.6306 164.958V153.01H24.4816V165.06C24.4816 166.055 24.3201 166.953 24.0001 167.748C23.6778 168.549 23.191 169.247 22.5456 169.838C21.9052 170.428 21.1657 170.873 20.3339 171.166C19.5081 171.459 18.5882 171.607 17.5782 171.607C15.5367 171.607 13.8727 171.017 12.5892 169.838C11.9435 169.247 11.457 168.549 11.1355 167.748C10.8136 166.953 10.6528 166.055 10.6528 165.06L10.6532 165.059ZM38.5132 155.437L30.1712 168.527H38.7571V171.277H26.6502V168.889L35.0089 155.76H26.8798V153.009H38.5536V155.371L38.5132 155.437ZM51.7587 161.78C52.0465 161.948 52.314 162.137 52.5542 162.348C52.898 162.644 53.1957 162.988 53.445 163.372C53.6958 163.757 53.8864 164.171 54.0097 164.608C54.1342 165.046 54.1974 165.51 54.1974 165.998C54.1974 166.741 54.0657 167.428 53.8028 168.056C53.5418 168.683 53.1469 169.252 52.623 169.758C52.0987 170.264 51.5166 170.644 50.8796 170.896C50.2384 171.149 49.5424 171.277 48.7934 171.277H40.877V153.009H48.2343C48.9697 153.009 49.6464 153.132 50.2637 153.377C50.8822 153.622 51.4402 153.99 51.9387 154.477C52.4464 154.966 52.8261 155.516 53.0811 156.121C53.3357 156.728 53.4631 157.394 53.4631 158.112C53.4631 158.948 53.2933 159.695 52.9536 160.349C52.6718 160.89 52.2731 161.367 51.759 161.78H51.7587ZM48.2336 155.734H43.7522V160.641H48.2336C48.9061 160.641 49.4694 160.405 49.9252 159.936C50.154 159.7 50.325 159.435 50.4411 159.145C50.555 158.856 50.6121 158.536 50.6121 158.189C50.6121 157.514 50.3753 156.941 49.9036 156.468L49.8987 156.462C49.6687 156.219 49.4156 156.035 49.1403 155.914C48.866 155.795 48.5634 155.734 48.2339 155.734H48.2336ZM43.7522 168.552H48.793C49.1565 168.552 49.489 168.489 49.7898 168.364C50.0901 168.238 50.3659 168.048 50.611 167.796C50.8553 167.542 51.0422 167.258 51.1633 166.947C51.2866 166.637 51.3479 166.293 51.3479 165.921C51.3479 165.557 51.2847 165.22 51.1591 164.916C51.0339 164.611 50.8425 164.328 50.5883 164.075L50.5822 164.069C50.3451 163.818 50.0788 163.627 49.7833 163.502C49.4864 163.377 49.1565 163.314 48.793 163.314H43.7522V168.552V168.552ZM59.3449 163.416V168.526H67.5847V171.277H56.4704V153.009H67.4584V155.76H59.3452V160.693H66.8255V163.416H59.3452L59.3449 163.416ZM75.3309 161.892L83.6464 171.276H80.0653L72.7836 163.173V171.276H69.9069V153.009H72.7836V160.62L79.8145 153.009H83.4017L75.3309 161.892ZM84.9163 171.016V153.009H87.7945V171.276H84.9163V171.016ZM96.7894 171.606C95.0811 171.606 93.6195 171.206 92.4003 170.408C91.7898 170.009 91.267 169.528 90.8388 168.972C90.411 168.416 90.0725 167.781 89.8247 167.069L89.7551 166.867L92.2483 165.435L92.3459 165.742C92.6636 166.757 93.1943 167.517 93.9338 168.02C94.6794 168.526 95.6493 168.779 96.8397 168.779C97.417 168.779 97.9287 168.721 98.3679 168.605C98.7957 168.491 99.1604 168.322 99.4589 168.096C99.7497 167.877 99.9718 167.618 100.116 167.321C100.261 167.026 100.335 166.684 100.335 166.3C100.335 165.926 100.262 165.599 100.122 165.32C99.9809 165.044 99.7679 164.806 99.4838 164.612C99.2115 164.43 98.8143 164.228 98.2926 164.009C97.7619 163.788 97.1064 163.551 96.3283 163.301C95.4613 163.017 94.7566 162.799 93.9331 162.444L93.1198 162.068C92.8145 161.91 92.5482 161.752 92.3235 161.593C92.0928 161.431 91.9018 161.264 91.7527 161.096C91.3609 160.668 91.065 160.189 90.8691 159.666C90.6698 159.143 90.5706 158.573 90.5706 157.959C90.5706 157.147 90.7136 156.418 90.9996 155.777C91.2852 155.13 91.7164 154.573 92.2884 154.107C92.855 153.632 93.4814 153.274 94.1672 153.036C94.8549 152.8 95.6043 152.68 96.4081 152.68C97.1238 152.68 97.7994 152.772 98.4315 152.949C99.0647 153.13 99.6578 153.402 100.204 153.763C100.749 154.123 101.227 154.551 101.635 155.043C102.042 155.535 102.383 156.094 102.655 156.715L102.746 156.926L100.314 158.329L100.201 158.059C99.8413 157.194 99.345 156.545 98.7163 156.118C98.0884 155.693 97.3186 155.479 96.4081 155.479C95.9504 155.479 95.5381 155.535 95.1787 155.644C94.8224 155.753 94.5062 155.916 94.2368 156.132C93.9739 156.342 93.7769 156.592 93.6452 156.875C93.5136 157.159 93.4474 157.488 93.4474 157.857C93.4474 158.208 93.5083 158.515 93.6316 158.774C93.7519 159.03 93.9342 159.247 94.1767 159.423C94.4509 159.624 94.8224 159.828 95.2831 160.03C95.7548 160.236 96.3234 160.444 96.9925 160.653C97.6927 160.876 98.3051 161.116 98.9849 161.342C99.2603 161.446 99.5515 161.569 99.8538 161.712C100.151 161.853 100.467 162.015 100.793 162.194C101.037 162.33 101.278 162.501 101.52 162.706C101.759 162.91 101.997 163.146 102.229 163.412C102.548 163.734 102.786 164.136 102.946 164.614C103.104 165.085 103.182 165.632 103.182 166.249C103.182 167.065 103.032 167.8 102.735 168.455C102.436 169.112 101.986 169.687 101.388 170.178C100.787 170.655 100.1 171.013 99.3314 171.251C98.565 171.486 97.7173 171.605 96.7894 171.605V171.606ZM103.634 153.009H116.699V155.759H111.45V171.276H108.599V155.759H103.375V153.009H103.634ZM131.678 171.276H128.986L127.54 167.295H119.914L118.469 171.276H115.406C117.684 165.191 119.965 159.103 122.218 153.009H125.239L132.049 171.276H131.678ZM123.717 156.838L120.915 164.572H126.542L123.717 156.838H123.717ZM144.55 165.673V153.008H147.428V171.276H145.131L136.398 158.588V171.276H133.521V153.008H135.817L144.55 165.673ZM155.864 153.008H168.928V155.759H163.68V171.276H160.83V155.759H155.605V153.008H155.864ZM173.619 163.415V168.526H181.858V171.276H170.742V153.009H181.732V155.759H173.619V160.692H181.099V163.416H173.619L173.619 163.415ZM192.655 171.606C191.271 171.606 190.006 171.377 188.865 170.921C187.72 170.465 186.698 169.779 185.803 168.865C184.907 167.961 184.236 166.947 183.788 165.826C183.34 164.704 183.116 163.476 183.116 162.143C183.116 159.471 184.011 157.23 185.802 155.42C186.698 154.507 187.72 153.82 188.864 153.364C190.007 152.909 191.271 152.681 192.655 152.681C193.476 152.681 194.274 152.781 195.042 152.981C195.806 153.181 196.542 153.483 197.246 153.883C197.949 154.28 198.576 154.751 199.125 155.291C199.675 155.831 200.145 156.443 200.537 157.12L200.667 157.344L198.153 158.802L198.03 158.56C197.787 158.092 197.486 157.671 197.125 157.301C196.766 156.927 196.341 156.6 195.858 156.321C195.377 156.041 194.868 155.831 194.335 155.691C193.803 155.55 193.243 155.48 192.655 155.48C191.655 155.48 190.751 155.64 189.947 155.956C189.148 156.271 188.435 156.747 187.82 157.379C187.203 158.005 186.737 158.714 186.431 159.505C186.122 160.297 185.967 161.178 185.967 162.143C185.967 163.1 186.122 163.975 186.431 164.762C186.737 165.547 187.201 166.256 187.82 166.88C188.435 167.514 189.148 167.989 189.947 168.305C190.751 168.621 191.655 168.78 192.655 168.78C193.241 168.78 193.802 168.711 194.334 168.57C194.867 168.432 195.376 168.22 195.858 167.941C196.341 167.661 196.766 167.336 197.124 166.968C197.487 166.599 197.789 166.183 198.032 165.725L198.156 165.489L200.664 166.913L200.537 167.138C200.154 167.818 199.686 168.434 199.145 168.976C198.601 169.519 197.976 169.996 197.273 170.403C196.576 170.805 195.839 171.106 195.072 171.306C194.301 171.506 193.495 171.606 192.655 171.606L192.655 171.606ZM213.694 160.54V153.009H216.545V171.276H213.694V163.288H205.593V171.276H202.717V153.009H205.593V160.54H213.694ZM230.86 165.673V153.009H233.735V171.276H231.438L222.706 158.588V171.276H219.831V153.009H222.126L230.86 165.673ZM236.084 162.143C236.084 160.827 236.312 159.607 236.769 158.489C237.225 157.371 237.911 156.355 238.822 155.444C239.732 154.525 240.749 153.834 241.866 153.373C242.985 152.912 244.203 152.681 245.52 152.681C246.835 152.681 248.056 152.913 249.176 153.373C250.292 153.834 251.308 154.525 252.218 155.443C253.138 156.355 253.831 157.371 254.291 158.489C254.753 159.607 254.984 160.826 254.984 162.143C254.984 163.451 254.753 164.665 254.291 165.785C253.831 166.903 253.138 167.924 252.22 168.843C251.308 169.761 250.292 170.453 249.176 170.914C248.056 171.374 246.835 171.606 245.52 171.606C244.203 171.606 242.985 171.375 241.866 170.914C240.748 170.453 239.732 169.761 238.822 168.842C237.911 167.913 237.225 166.888 236.769 165.77C236.312 164.652 236.084 163.441 236.084 162.143ZM252.108 162.143C252.108 161.195 251.948 160.325 251.633 159.538C251.318 158.752 250.839 158.042 250.205 157.407C249.586 156.762 248.889 156.28 248.111 155.96C247.334 155.64 246.469 155.48 245.52 155.48C244.579 155.48 243.72 155.64 242.938 155.96C242.155 156.28 241.447 156.762 240.814 157.405C240.186 158.047 239.716 158.764 239.403 159.551C239.091 160.338 238.935 161.203 238.935 162.143C238.935 163.074 239.091 163.935 239.403 164.722C239.716 165.509 240.187 166.232 240.814 166.882C241.447 167.514 242.155 167.989 242.936 168.304C243.72 168.621 244.581 168.78 245.52 168.78C246.466 168.78 247.331 168.621 248.112 168.304C248.89 167.988 249.589 167.514 250.204 166.881C250.839 166.23 251.316 165.509 251.633 164.722C251.95 163.935 252.108 163.074 252.108 162.143ZM260.18 153.269V168.526H267.839V171.277H257.304V153.009H260.18V153.269ZM267.522 162.143C267.522 160.825 267.753 159.606 268.208 158.489C268.666 157.371 269.35 156.355 270.261 155.444C271.171 154.525 272.188 153.834 273.305 153.373C274.424 152.913 275.644 152.681 276.961 152.681C278.276 152.681 279.497 152.912 280.614 153.373C281.732 153.834 282.749 154.525 283.659 155.443C284.578 156.355 285.27 157.37 285.732 158.489C286.192 159.607 286.423 160.826 286.423 162.143C286.423 164.766 285.501 167 283.659 168.843C282.748 169.761 281.731 170.453 280.613 170.914C279.496 171.375 278.276 171.606 276.961 171.606C275.644 171.606 274.424 171.374 273.305 170.914C272.187 170.453 271.171 169.761 270.26 168.842C269.35 167.913 268.666 166.888 268.21 165.77C267.753 164.654 267.522 163.443 267.522 162.143H267.522ZM283.546 162.143C283.546 161.195 283.388 160.325 283.071 159.538C282.757 158.752 282.281 158.042 281.646 157.407C281.026 156.762 280.327 156.28 279.549 155.96C278.772 155.64 277.908 155.48 276.962 155.48C276.022 155.48 275.159 155.64 274.377 155.96C273.596 156.279 272.886 156.762 272.252 157.405C271.625 158.047 271.155 158.763 270.843 159.55C270.531 160.337 270.374 161.203 270.374 162.143C270.374 163.074 270.531 163.935 270.842 164.722C271.154 165.508 271.625 166.229 272.251 166.879C272.884 167.513 273.594 167.988 274.375 168.304C275.158 168.621 276.022 168.78 276.962 168.78C277.907 168.78 278.772 168.621 279.55 168.304C280.33 167.988 281.028 167.514 281.643 166.881C282.279 166.23 282.756 165.509 283.071 164.722C283.389 163.935 283.546 163.074 283.546 162.143ZM297.242 161.959H306.378V163.284C306.378 164.474 306.171 165.568 305.761 166.564C305.349 167.56 304.733 168.457 303.913 169.249C303.092 170.035 302.14 170.626 301.052 171.019C299.97 171.41 298.758 171.606 297.422 171.606C296.039 171.606 294.768 171.377 293.618 170.921C292.466 170.464 291.43 169.779 290.519 168.867C289.616 167.937 288.935 166.909 288.484 165.789C288.032 164.667 287.807 163.451 287.807 162.143C287.807 160.834 288.032 159.619 288.484 158.503C288.935 157.387 289.615 156.367 290.519 155.446C291.43 154.525 292.461 153.833 293.605 153.372C294.747 152.912 296.003 152.681 297.371 152.681C299.037 152.681 300.586 153.09 302.013 153.907C302.733 154.315 303.366 154.784 303.908 155.316C304.454 155.849 304.912 156.445 305.279 157.099L305.401 157.319L302.923 158.775L302.796 158.537C302.554 158.079 302.249 157.663 301.885 157.297C301.515 156.926 301.084 156.601 300.592 156.322C300.096 156.043 299.577 155.831 299.037 155.691C298.496 155.55 297.932 155.48 297.344 155.48C296.354 155.48 295.457 155.641 294.658 155.962C293.86 156.282 293.153 156.763 292.538 157.404C291.91 158.048 291.439 158.765 291.127 159.552C290.814 160.339 290.658 161.204 290.658 162.144C290.658 163.084 290.814 163.949 291.127 164.735C291.439 165.522 291.91 166.24 292.537 166.881C293.169 167.514 293.894 167.989 294.708 168.305C295.524 168.622 296.439 168.78 297.447 168.78C298.292 168.78 299.059 168.677 299.746 168.472C300.426 168.268 301.033 167.961 301.56 167.555C302.087 167.148 302.516 166.674 302.837 166.134C303.112 165.675 303.313 165.166 303.443 164.608H296.985V161.96H297.242V161.959ZM308.724 171.016V153.009H311.6V171.276H308.724V171.016ZM323.484 171.606C322.102 171.606 320.836 171.377 319.694 170.921C318.549 170.466 317.527 169.779 316.633 168.865C315.739 167.962 315.065 166.948 314.619 165.826C314.169 164.704 313.945 163.474 313.945 162.143C313.945 160.81 314.169 159.581 314.619 158.46C315.065 157.336 315.74 156.321 316.633 155.419C317.529 154.507 318.549 153.821 319.694 153.365C320.836 152.909 322.102 152.681 323.484 152.681C324.309 152.681 325.102 152.782 325.87 152.982C326.634 153.182 327.37 153.483 328.076 153.883C328.778 154.281 329.407 154.752 329.955 155.291C330.503 155.831 330.975 156.443 331.366 157.121L331.493 157.344L328.986 158.802L328.86 158.561C328.618 158.092 328.316 157.672 327.957 157.301C327.595 156.927 327.174 156.601 326.691 156.321C326.209 156.041 325.699 155.831 325.166 155.691C324.633 155.55 324.073 155.48 323.485 155.48C322.487 155.48 321.582 155.64 320.779 155.956C319.977 156.272 319.267 156.747 318.65 157.379C318.034 158.005 317.57 158.716 317.262 159.505C316.952 160.297 316.798 161.178 316.798 162.144C316.798 164.051 317.416 165.631 318.65 166.881C319.268 167.515 319.977 167.989 320.779 168.305C321.583 168.622 322.487 168.78 323.485 168.78C324.073 168.78 324.632 168.711 325.165 168.57C325.697 168.432 326.208 168.22 326.691 167.941C327.174 167.661 327.595 167.336 327.956 166.968C328.316 166.598 328.62 166.183 328.861 165.725L328.986 165.489L331.492 166.914L331.366 167.138C330.984 167.819 330.518 168.432 329.975 168.976C329.431 169.52 328.806 169.996 328.102 170.404C327.406 170.804 326.673 171.106 325.903 171.306C325.133 171.506 324.326 171.606 323.484 171.606V171.606ZM347.801 171.277H345.11L343.664 167.296H336.04L334.592 171.277H331.53C333.808 165.192 336.089 159.103 338.34 153.009H341.362L348.173 171.277H347.801ZM339.839 156.838L337.04 164.572H342.663L339.838 156.838H339.839ZM352.521 153.269V168.526H360.179V171.277H349.646V153.009H352.521V153.269ZM382.562 153.009H385.483V171.277H382.632V158.08L377.231 167.066H376.636L371.234 158.104V171.277H368.358V153.009H371.423L376.935 162.149L382.417 153.009H382.562ZM391.645 163.416V168.527H399.885V171.277H388.769V153.01H399.759V155.76H391.645V160.693H399.125V163.416H391.645L391.645 163.416ZM401.02 153.009H414.083V155.76H408.835V171.277H405.986V155.76H400.762V153.009H401.02ZM429.063 171.277H426.372L424.926 167.296H417.301L415.855 171.277H412.791C415.069 165.192 417.351 159.103 419.603 153.009H422.624L429.435 171.277H429.063ZM421.103 156.838L418.299 164.572H423.927L421.102 156.838H421.103ZM433.785 153.269V168.526H441.442V171.277H430.909V153.009H433.785V153.269ZM448.814 171.606C447.108 171.606 445.644 171.206 444.427 170.408C443.814 170.009 443.294 169.529 442.862 168.972C442.436 168.415 442.097 167.781 441.851 167.069L441.782 166.867L444.273 165.435L444.371 165.741C444.691 166.757 445.222 167.518 445.962 168.02C446.706 168.526 447.674 168.779 448.864 168.779C449.442 168.779 449.953 168.721 450.392 168.605C450.822 168.491 451.188 168.322 451.487 168.096C451.776 167.877 451.996 167.618 452.14 167.321C452.284 167.024 452.359 166.682 452.359 166.3C452.359 165.926 452.287 165.599 452.147 165.32C452.007 165.044 451.793 164.806 451.507 164.612C451.238 164.43 450.839 164.228 450.317 164.009C449.789 163.788 449.133 163.551 448.355 163.301C447.486 163.017 446.782 162.799 445.958 162.444L445.147 162.068C444.841 161.91 444.573 161.752 444.349 161.593C444.117 161.431 443.928 161.264 443.777 161.097C443.387 160.668 443.089 160.189 442.893 159.665C442.696 159.141 442.597 158.571 442.597 157.959C442.597 157.147 442.741 156.419 443.025 155.777C443.313 155.13 443.744 154.573 444.315 154.107C444.88 153.632 445.506 153.274 446.194 153.036C446.882 152.8 447.63 152.68 448.433 152.68C449.15 152.68 449.824 152.772 450.455 152.949C451.089 153.13 451.682 153.401 452.228 153.763C452.773 154.123 453.252 154.551 453.661 155.043C454.068 155.535 454.408 156.094 454.678 156.715L454.772 156.926L452.34 158.329L452.228 158.059C451.866 157.194 451.37 156.545 450.743 156.118C450.115 155.693 449.345 155.479 448.433 155.479C447.975 155.479 447.565 155.535 447.204 155.644C446.847 155.753 446.532 155.916 446.263 156.132C445.999 156.344 445.8 156.592 445.67 156.874C445.539 157.16 445.473 157.489 445.473 157.857C445.473 158.208 445.535 158.515 445.656 158.774C445.777 159.03 445.961 159.247 446.201 159.423C446.477 159.624 446.847 159.828 447.309 160.03C447.78 160.236 448.35 160.444 449.018 160.653C449.717 160.876 450.329 161.116 451.009 161.342C451.287 161.446 451.577 161.569 451.877 161.712C452.178 161.853 452.492 162.015 452.818 162.194C453.062 162.331 453.306 162.503 453.55 162.709C453.784 162.909 454.021 163.145 454.254 163.412C454.571 163.734 454.813 164.136 454.972 164.614C455.129 165.085 455.208 165.632 455.208 166.249C455.208 167.063 455.058 167.8 454.759 168.456C454.459 169.112 454.011 169.687 453.414 170.175C452.814 170.654 452.127 171.013 451.357 171.25C450.592 171.486 449.742 171.605 448.814 171.605V171.606ZM472.42 171.606C471.036 171.606 469.77 171.377 468.628 170.921C467.484 170.466 466.462 169.779 465.566 168.865C464.672 167.962 463.999 166.948 463.553 165.827C463.104 164.705 462.88 163.476 462.88 162.143C462.88 159.472 463.775 157.23 465.565 155.42C466.461 154.507 467.483 153.821 468.629 153.365C469.77 152.909 471.035 152.681 472.419 152.681C473.242 152.681 474.037 152.782 474.804 152.982C475.569 153.182 476.304 153.483 477.01 153.883C477.714 154.281 478.34 154.751 478.887 155.291C479.437 155.831 479.907 156.442 480.3 157.121L480.428 157.344L477.916 158.802L477.793 158.561C477.55 158.092 477.249 157.671 476.887 157.299C476.529 156.927 476.104 156.6 475.624 156.321C475.143 156.041 474.632 155.831 474.1 155.691C473.566 155.55 473.004 155.48 472.42 155.48C471.42 155.48 470.515 155.64 469.712 155.956C468.911 156.272 468.198 156.747 467.584 157.379C466.965 158.005 466.503 158.716 466.194 159.506C465.886 160.297 465.73 161.178 465.73 162.144C465.73 163.101 465.886 163.974 466.194 164.762C466.501 165.548 466.965 166.256 467.584 166.881C468.199 167.515 468.91 167.989 469.71 168.305C470.515 168.622 471.419 168.78 472.42 168.78C473.005 168.78 473.566 168.711 474.099 168.57C474.631 168.432 475.141 168.22 475.624 167.941C476.105 167.663 476.53 167.336 476.89 166.967C477.25 166.6 477.553 166.184 477.795 165.725L477.918 165.489L480.427 166.914L480.3 167.138C479.917 167.819 479.449 168.434 478.908 168.976C478.365 169.519 477.74 169.996 477.036 170.404C476.339 170.806 475.604 171.106 474.834 171.306C474.065 171.506 473.26 171.606 472.419 171.606L472.42 171.606ZM481.491 162.143C481.491 160.827 481.719 159.607 482.176 158.489C482.633 157.371 483.319 156.355 484.229 155.444C485.142 154.525 486.157 153.834 487.273 153.373C488.391 152.913 489.611 152.681 490.927 152.681C492.246 152.681 493.463 152.913 494.581 153.373C495.7 153.834 496.717 154.526 497.628 155.443C498.546 156.355 499.238 157.371 499.698 158.489C500.16 159.607 500.391 160.826 500.391 162.143C500.391 163.451 500.16 164.665 499.698 165.785C499.238 166.902 498.546 167.923 497.628 168.842C496.717 169.761 495.699 170.453 494.581 170.914C493.463 171.375 492.246 171.606 490.927 171.606C489.611 171.606 488.391 171.375 487.273 170.914C486.156 170.453 485.142 169.761 484.229 168.842C483.318 167.913 482.633 166.888 482.176 165.77C481.719 164.652 481.491 163.441 481.491 162.143ZM497.515 162.143C497.515 161.195 497.354 160.325 497.039 159.538C496.723 158.752 496.247 158.042 495.612 157.407C494.992 156.762 494.295 156.28 493.518 155.96C492.741 155.64 491.876 155.48 490.927 155.48C489.988 155.48 489.127 155.64 488.345 155.96C487.563 156.28 486.854 156.762 486.22 157.405C485.594 158.047 485.123 158.764 484.811 159.551C484.499 160.337 484.342 161.202 484.342 162.143C484.342 163.998 484.968 165.579 486.217 166.879C486.852 167.513 487.562 167.988 488.344 168.304C489.128 168.621 489.989 168.78 490.927 168.78C491.874 168.78 492.739 168.621 493.519 168.304C494.297 167.988 494.994 167.514 495.611 166.881C496.245 166.23 496.722 165.509 497.039 164.722C497.355 163.935 497.515 163.074 497.515 162.143ZM516.917 153.009H519.839V171.276H516.988V158.079L511.586 167.066H510.991L505.587 158.103V171.276H502.712V153.009H505.78L511.288 162.149L516.77 153.009H516.917ZM523.383 153.009H529.823C530.669 153.009 531.448 153.154 532.157 153.441C532.87 153.73 533.514 154.161 534.086 154.735C534.661 155.309 535.094 155.951 535.382 156.658C535.669 157.363 535.813 158.136 535.813 158.974C535.813 159.81 535.669 160.582 535.381 161.29C535.094 161.996 534.661 162.638 534.087 163.212C533.513 163.787 532.87 164.219 532.159 164.507C531.447 164.794 530.666 164.938 529.823 164.938H525.999V171.277H523.123V153.009H523.383V153.009ZM525.998 162.213H529.823C530.287 162.213 530.708 162.136 531.081 161.984C531.453 161.834 531.784 161.606 532.07 161.306C532.367 160.987 532.588 160.632 532.737 160.245C532.886 159.857 532.961 159.433 532.961 158.974C532.961 158.499 532.885 158.066 532.737 157.677C532.589 157.293 532.367 156.947 532.073 156.643C531.778 156.341 531.441 156.113 531.07 155.962C530.695 155.811 530.278 155.734 529.823 155.734H525.998V162.214V162.213ZM540.958 153.269V168.526H548.617V171.277H538.082V153.009H540.958V153.269ZM553.331 163.416V168.526H561.573V171.277H550.456V153.009H561.446V155.76H553.332V160.693H560.813V163.416H553.332L553.331 163.416ZM571.379 161.864L577.245 171.276H573.948L569.731 164.509L565.511 171.276H562.239L568.108 161.89L562.571 153.009H565.842L569.73 159.245L573.619 153.009H576.891L571.378 161.864H571.379ZM600.411 171.606C599.741 171.606 599.112 171.533 598.521 171.392C597.93 171.25 597.38 171.034 596.873 170.747C596.362 170.458 595.918 170.107 595.543 169.697C595.168 169.287 594.86 168.813 594.621 168.281L594.525 168.068L596.989 166.636L597.101 166.914C597.347 167.535 597.742 167.999 598.281 168.306C598.832 168.621 599.542 168.778 600.411 168.778C600.961 168.778 601.446 168.713 601.864 168.585C602.273 168.458 602.626 168.268 602.917 168.018C603.199 167.772 603.416 167.468 603.557 167.107C603.702 166.741 603.776 166.311 603.776 165.818V153.007H606.628V165.818C606.628 166.737 606.48 167.557 606.182 168.274C605.883 168.996 605.434 169.614 604.837 170.122C604.246 170.618 603.579 170.988 602.836 171.235C602.099 171.48 601.288 171.605 600.411 171.605L600.411 171.606ZM615.673 171.606C613.968 171.606 612.502 171.206 611.286 170.408C610.673 170.008 610.153 169.527 609.722 168.971C609.295 168.415 608.956 167.78 608.711 167.069L608.641 166.867L611.131 165.434L611.229 165.742C611.549 166.757 612.08 167.517 612.819 168.02C613.565 168.525 614.533 168.779 615.722 168.779C616.302 168.779 616.812 168.721 617.251 168.605C617.682 168.491 618.046 168.321 618.344 168.096C618.636 167.877 618.856 167.618 619 167.321C619.144 167.025 619.218 166.683 619.218 166.3C619.218 165.926 619.146 165.599 619.004 165.32C618.866 165.045 618.653 164.807 618.367 164.613C618.093 164.427 617.694 164.225 617.176 164.008C616.647 163.788 615.992 163.55 615.215 163.301C614.349 163.016 613.644 162.8 612.823 162.445L612.005 162.067C611.7 161.91 611.43 161.751 611.207 161.593C610.979 161.431 610.79 161.266 610.64 161.1C610.246 160.67 609.948 160.19 609.751 159.666C609.553 159.143 609.455 158.573 609.455 157.959C609.455 157.147 609.599 156.417 609.883 155.774C610.171 155.13 610.603 154.571 611.174 154.107C611.742 153.632 612.366 153.274 613.053 153.036C613.742 152.799 614.488 152.68 615.294 152.68C616.009 152.68 616.685 152.77 617.316 152.949C617.95 153.129 618.541 153.402 619.086 153.762C619.632 154.123 620.112 154.55 620.52 155.042C620.927 155.534 621.267 156.093 621.538 156.714L621.63 156.926L619.198 158.328L619.086 158.058C618.727 157.192 618.23 156.546 617.602 156.118C616.975 155.692 616.204 155.478 615.294 155.478C614.835 155.478 614.424 155.534 614.062 155.643C613.706 155.752 613.392 155.916 613.122 156.131C612.859 156.343 612.659 156.591 612.529 156.875C612.399 157.159 612.333 157.488 612.333 157.857C612.333 158.207 612.394 158.514 612.516 158.774C612.635 159.029 612.82 159.245 613.061 159.422C613.335 159.624 613.705 159.827 614.167 160.03C614.638 160.236 615.209 160.444 615.877 160.652C616.547 160.866 617.219 161.137 617.869 161.341C618.146 161.446 618.435 161.569 618.736 161.712C619.035 161.853 619.35 162.015 619.677 162.194C619.921 162.331 620.166 162.503 620.408 162.708C620.645 162.91 620.88 163.145 621.113 163.412C621.431 163.734 621.674 164.136 621.831 164.613C621.988 165.087 622.068 165.633 622.068 166.249C622.068 167.061 621.918 167.798 621.617 168.455C621.321 169.111 620.872 169.684 620.275 170.175C619.673 170.654 618.986 171.012 618.215 171.25C617.451 171.485 616.601 171.605 615.673 171.605V171.606ZM632.812 171.606C631.429 171.606 630.163 171.377 629.023 170.921C627.877 170.464 626.855 169.777 625.959 168.865C625.065 167.961 624.393 166.947 623.947 165.826C623.497 164.703 623.273 163.474 623.273 162.143C623.273 160.809 623.497 159.581 623.947 158.46C624.393 157.336 625.067 156.321 625.959 155.419C626.855 154.507 627.877 153.821 629.021 153.365C630.163 152.909 631.429 152.681 632.812 152.681C633.635 152.681 634.433 152.781 635.2 152.981C635.963 153.181 636.701 153.483 637.404 153.883C638.107 154.28 638.733 154.751 639.283 155.291C639.83 155.831 640.304 156.442 640.694 157.121L640.824 157.344L638.313 158.802L638.188 158.56C637.946 158.092 637.643 157.671 637.284 157.301C636.923 156.927 636.501 156.6 636.017 156.321C635.536 156.041 635.026 155.831 634.493 155.691C633.96 155.55 633.401 155.48 632.812 155.48C631.815 155.48 630.909 155.64 630.106 155.956C629.305 156.271 628.595 156.747 627.978 157.379C627.362 158.005 626.897 158.715 626.59 159.505C626.28 160.297 626.125 161.178 626.125 162.143C626.125 164.05 626.743 165.631 627.978 166.88C628.595 167.514 629.305 167.989 630.106 168.305C630.909 168.621 631.813 168.78 632.812 168.78C633.4 168.78 633.96 168.711 634.492 168.57C635.024 168.432 635.534 168.22 636.017 167.941C636.501 167.661 636.923 167.336 637.284 166.968C637.644 166.599 637.948 166.183 638.189 165.725L638.313 165.489L640.823 166.913L640.696 167.138C640.311 167.818 639.846 168.433 639.302 168.976C638.757 169.52 638.132 169.996 637.43 170.403C636.734 170.805 635.997 171.106 635.23 171.306C634.459 171.506 633.654 171.606 632.812 171.606V171.606Z" fill="#0EA8C7"/>
</g>
<defs>
<clipPath id="clip0_450_621">
<rect width="640.823" height="171.607" fill="white"/>
</clipPath>
</defs>
</svg>
