<?xml version="1.0" encoding="UTF-8"?>
<svg version="1.1" xmlns="http://www.w3.org/2000/svg" width="373" height="172">
<path d="M0 0 C0.99 0 1.98 0 3 0 C14.57927638 0.73519215 24.43022161 4.49392764 34 11 C35.03125 11.680625 36.0625 12.36125 37.125 13.0625 C43.50077783 18.63445484 48.49837577 27.73552993 49.16796875 36.09765625 C49.23553764 42.89508661 49.23553764 42.89508661 47 46 C43.6904355 47.65478225 39.99728808 47.13805869 36.359375 47.12939453 C35.01776306 47.13202301 35.01776306 47.13202301 33.64904785 47.13470459 C30.68267902 47.13911788 27.71636947 47.13618694 24.75 47.1328125 C22.69498686 47.13348569 20.6399738 47.13445584 18.58496094 47.13571167 C14.27408084 47.13718793 9.96322144 47.13503636 5.65234375 47.13037109 C0.11706902 47.12467385 -5.41815723 47.12795324 -10.95343018 47.13394356 C-15.19808317 47.13755108 -19.4427246 47.1364097 -23.68737793 47.13381577 C-25.72880051 47.13314703 -27.77022414 47.13397307 -29.81164551 47.13629532 C-32.6609171 47.13882496 -35.51010934 47.1349768 -38.359375 47.12939453 C-39.63427795 47.13243088 -39.63427795 47.13243088 -40.93493652 47.13552856 C-46.77147215 47.11426393 -46.77147215 47.11426393 -49 46 C-49 44.68 -49 43.36 -49 42 C-49.66 42 -50.32 42 -51 42 C-52.02893603 33.38742431 -49.71808614 27.18854192 -45 20 C-34.06848618 6.67281372 -17.34854407 -0.8674272 0 0 Z " fill="#0A6D3C" transform="translate(96,49)"/>
<path d="M0 0 C0.9170018 -0.00563965 1.8340036 -0.0112793 2.77879333 -0.01708984 C4.29214012 -0.01101715 4.29214012 -0.01101715 5.83605957 -0.00482178 C7.42638756 -0.01007874 7.42638756 -0.01007874 9.04884338 -0.01544189 C12.56717399 -0.0242727 16.0853049 -0.01840523 19.6036377 -0.01165771 C22.03979532 -0.01300398 24.47595268 -0.01494418 26.91210938 -0.01745605 C32.02334139 -0.02040915 37.13450362 -0.01610368 42.24572754 -0.0067749 C48.81012273 0.00461967 55.3743544 -0.0019388 61.93874359 -0.01391983 C66.97089885 -0.0211334 72.0030151 -0.01885281 77.03517151 -0.01366425 C79.45618204 -0.01232636 81.87719607 -0.0139803 84.29820251 -0.01862335 C87.67680295 -0.02368029 91.05513544 -0.01598995 94.43371582 -0.00482178 C95.44261368 -0.00887024 96.45151154 -0.0129187 97.49098206 -0.01708984 C98.40798386 -0.0114502 99.32498566 -0.00581055 100.26977539 0 C101.46881878 0.00113108 101.46881878 0.00113108 102.69208527 0.002285 C104.6348877 0.25396729 104.6348877 0.25396729 106.6348877 2.25396729 C106.7598877 4.87896729 106.7598877 4.87896729 106.6348877 7.25396729 C100.38749816 10.33731385 94.42303944 12.26764764 87.56848145 13.47271729 C86.62000839 13.64089966 85.67153534 13.80908203 84.69432068 13.98236084 C74.71554361 15.61029837 64.82353193 15.85999781 54.73083496 15.77545166 C51.70129209 15.75399494 48.67412572 15.77541125 45.64465332 15.80084229 C35.36326034 15.81661432 25.4011514 15.19528835 15.25598145 13.47271729 C14.33575699 13.3177478 13.41553253 13.16277832 12.46742249 13.00311279 C-0.40665702 10.5875449 -0.40665702 10.5875449 -5.3651123 7.25396729 C-6.26502991 4.74310303 -6.26502991 4.74310303 -6.3651123 2.25396729 C-3.93091036 -0.18023466 -3.33392182 0.00314494 0 0 Z " fill="#B29249" transform="translate(43.3651123046875,99.74603271484375)"/>
<path d="M0 0 C-1.269553 0.64834654 -2.54069706 1.29357815 -3.8125 1.9375 C-4.52019531 2.29714844 -5.22789063 2.65679687 -5.95703125 3.02734375 C-8 4 -8 4 -11 5 C-11.33 5.99 -11.66 6.98 -12 8 C-9.06067346 7.38085139 -6.79163991 6.41724549 -4.1875 4.9375 C-0.2065191 2.86858497 2.5630502 2.63025418 7 3 C5.13327237 4.94450795 3.28861712 6.78368779 1.12890625 8.40234375 C-6.01639246 13.92678075 -9.47384627 21.3497617 -10.8125 30.25 C-10.9053125 31.61125 -10.9053125 31.61125 -11 33 C-11.62648438 33.06058594 -12.25296875 33.12117188 -12.8984375 33.18359375 C-13.71570313 33.26738281 -14.53296875 33.35117188 -15.375 33.4375 C-16.18710937 33.51871094 -16.99921875 33.59992188 -17.8359375 33.68359375 C-20.04272805 33.89090114 -20.04272805 33.89090114 -22 35 C-24.2072923 35.07092842 -26.41667452 35.08415025 -28.625 35.0625 C-29.81351563 35.05347656 -31.00203125 35.04445312 -32.2265625 35.03515625 C-33.14179687 35.02355469 -34.05703125 35.01195312 -35 35 C-35.90416792 27.16387804 -33.19900737 21.55286571 -29 15 C-22.45047863 6.99100885 -15.16881072 1.29189321 -4.98046875 -0.8359375 C-3 -1 -3 -1 0 0 Z " fill="#128D57" transform="translate(80,54)"/>
<path d="M0 0 C-0.94577555 9.34361013 -3.09282933 17.70542111 -9.6328125 24.76171875 C-13.91440979 28.2367826 -18.5507592 29.14101547 -24 29 C-26.20703125 28.6328125 -26.20703125 28.6328125 -28 28 C-28.33 27.34 -28.66 26.68 -29 26 C-29.66 26 -30.32 26 -31 26 C-31.37214551 18.90166902 -31.20842463 14.72177257 -26.4375 9.1875 C-25 8 -25 8 -23 8 C-23 7.34 -23 6.68 -23 6 C-21.0848421 5.18395001 -19.16781166 4.37229368 -17.25 3.5625 C-16.18265625 3.11003906 -15.1153125 2.65757813 -14.015625 2.19140625 C-9.09719701 0.24824493 -5.31952612 -0.10229858 0 0 Z " fill="#EECE76" transform="translate(131,20)"/>
<path d="M0 0 C0.33 0.99 0.66 1.98 1 3 C1.66 2.505 2.32 2.01 3 1.5 C6.65620281 -0.3281014 9.99909205 -1.15177653 14 0 C17.02700598 2.08079282 18.73361327 3.70835571 19.49072266 7.37939453 C19.71642568 10.19940864 19.79540152 12.98365188 19.8125 15.8125 C19.83763672 16.79154297 19.86277344 17.77058594 19.88867188 18.77929688 C19.94738663 21.18660197 19.9837798 23.59209562 20 26 C20.99 26 21.98 26 23 26 C22.125 29.875 22.125 29.875 21 31 C19.48071962 31.07179964 17.95832518 31.08392007 16.4375 31.0625 C15.61121094 31.05347656 14.78492188 31.04445313 13.93359375 31.03515625 C12.97646484 31.01775391 12.97646484 31.01775391 12 31 C10.857885 28.71577 10.81837381 27.2602171 10.71875 24.71875 C10.68136719 23.87699219 10.64398438 23.03523438 10.60546875 22.16796875 C10.53515625 20.38932292 10.46484375 18.61067708 10.39453125 16.83203125 C10.35714844 15.99027344 10.31976563 15.14851563 10.28125 14.28125 C10.25095703 13.50845703 10.22066406 12.73566406 10.18945312 11.93945312 C10.10901422 9.91958017 10.10901422 9.91958017 9 8 C4.52116304 8.44703986 4.52116304 8.44703986 1 11 C0.63047951 13.12860662 0.63047951 13.12860662 0.5859375 15.5703125 C0.52792969 16.91416016 0.52792969 16.91416016 0.46875 18.28515625 C0.42234375 19.69087891 0.42234375 19.69087891 0.375 21.125 C0.31699219 22.54232422 0.31699219 22.54232422 0.2578125 23.98828125 C0.16338654 26.32532375 0.07781606 28.66235501 0 31 C-2.64 31 -5.28 31 -8 31 C-8.8410478 27.3535194 -9.11764968 24.00049093 -9.09765625 20.26171875 C-9.09443359 19.19501953 -9.09121094 18.12832031 -9.08789062 17.02929688 C-9.07951172 15.92650391 -9.07113281 14.82371094 -9.0625 13.6875 C-9.05798828 12.56537109 -9.05347656 11.44324219 -9.04882812 10.28710938 C-9.03707313 7.5246849 -9.02064077 4.76237002 -9 2 C-5.78360346 0.25434889 -3.67986596 -0.204437 0 0 Z " fill="#DCC781" transform="translate(311,72)"/>
<path d="M0 0 C4.14779233 1.851693 5.58074741 3.2872706 7.875 7.1875 C10.06897515 14.62263802 9.50381135 20.13836945 6 27 C5.34 27 4.68 27 4 27 C3.67 27.99 3.34 28.98 3 30 C-2.73880319 32.04957257 -8.07141156 32.70638339 -14 31 C-16.95395976 29.34380499 -19.47798632 27.48062062 -20.64453125 24.171875 C-21.06391943 21.60945931 -21.16949089 19.15941406 -21.1875 16.5625 C-21.20167969 15.63566406 -21.21585937 14.70882812 -21.23046875 13.75390625 C-20.92045289 10.04947946 -20.1250604 7.21066282 -17.5625 4.453125 C-11.53228873 -0.19013768 -7.56368207 -0.74782167 0 0 Z M-10.22265625 6.62890625 C-12.45292953 9.60423786 -12.50721731 11.25177803 -12.4375 14.9375 C-12.43621094 15.95714844 -12.43492187 16.97679687 -12.43359375 18.02734375 C-11.94365156 21.38631677 -11.06221556 23.31669363 -9 26 C-6 26.83333333 -6 26.83333333 -3 26 C0.15236352 22.95271526 0.26217848 19.69074996 0.4375 15.5 C0.33184461 11.77187424 0.08136969 10.14820908 -1.75 6.8125 C-4.90603396 4.27013931 -6.94539693 4.22711866 -10.22265625 6.62890625 Z " fill="#DFC380" transform="translate(289,72)"/>
<path d="M0 0 C3.56785803 2.3547863 4.67986659 3.8425946 5.8125 7.9375 C6.29377313 13.92667668 6.07492966 19.9973013 6 26 C6.99 26 7.98 26 9 26 C8.67 27.65 8.34 29.3 8 31 C4.2983569 31.94693195 2.60887535 32.30443767 -0.875 30.5625 C-1.57625 30.046875 -2.2775 29.53125 -3 29 C-3.66 29.66 -4.32 30.32 -5 31 C-9.79206836 31.65415536 -14.41070291 31.88704954 -18.6875 29.5 C-20.49416915 26.05872543 -21.00781873 22.79414109 -20 19 C-17.08498724 15.1966024 -14.35411897 14.25089543 -9.75 13.25 C-8.67234375 13.00765625 -7.5946875 12.7653125 -6.484375 12.515625 C-5.66453125 12.34546875 -4.8446875 12.1753125 -4 12 C-4.33 10.35 -4.66 8.7 -5 7 C-5.77085937 7.09539062 -6.54171875 7.19078125 -7.3359375 7.2890625 C-8.33882812 7.39992188 -9.34171875 7.51078125 -10.375 7.625 C-11.37273437 7.74101563 -12.37046875 7.85703125 -13.3984375 7.9765625 C-14.25695312 7.98429687 -15.11546875 7.99203125 -16 8 C-16.66 7.34 -17.32 6.68 -18 6 C-18 5.01 -18 4.02 -18 3 C-12.1108896 -0.14085888 -6.64903311 -1.07738962 0 0 Z M-11 20 C-11 21.65 -11 23.3 -11 25 C-8.65466049 25.76956136 -8.65466049 25.76956136 -6 26 C-4.04374022 25.04451019 -4.04374022 25.04451019 -3 23 C-2.74951364 19.87450983 -2.74951364 19.87450983 -3 17 C-6.08009879 17 -8.31135136 18.5972268 -11 20 Z " fill="#D2B676" transform="translate(242,72)"/>
<path d="M0 0 C3.1875 1.5 3.1875 1.5 5 4 C5.60150147 6.95986369 5.39320039 8.90354697 5 12 C2.83033528 14.91137119 0.49249242 15.71266005 -2.9375 16.6875 C-3.79214844 16.93886719 -4.64679688 17.19023438 -5.52734375 17.44921875 C-8 18 -8 18 -12 18 C-10.75023244 21.65316671 -10.32901247 22.78065836 -7 25 C-2.645335 24.67743222 1.02962882 23.80471417 5 22 C5.33 23.65 5.66 25.3 6 27 C2.31637614 30.68362386 -0.61744353 31.69083781 -5.65625 32.03515625 C-10.51685019 31.96224725 -14.54201029 31.1589149 -18.4375 28.0625 C-21.12261487 24.51814837 -21.16061588 21.43721276 -21.1875 17.125 C-21.20167969 16.09632812 -21.21585938 15.06765625 -21.23046875 14.0078125 C-20.92398396 10.00792627 -20.08267938 7.25091528 -17.44140625 4.19921875 C-11.86799297 -0.28500358 -7.05724489 -1.25707175 0 0 Z M-11 7 C-11.73343428 10.06556598 -11.73343428 10.06556598 -12 13 C-7.35413108 12.51515724 -7.35413108 12.51515724 -3 11 C-3.33 9.02 -3.66 7.04 -4 5 C-8.04622502 4.63019987 -8.04622502 4.63019987 -11 7 Z " fill="#D8C387" transform="translate(175,72)"/>
<path d="M0 0 C14.19 0 28.38 0 43 0 C43 4.29 43 8.58 43 13 C33.57290439 13.43960549 24.65643204 13.07443666 15.375 11.25 C14.54709961 11.09305664 13.71919922 10.93611328 12.86621094 10.77441406 C7.57173225 9.65446953 3.56355483 7.91186608 -1 5 C-0.67 3.35 -0.34 1.7 0 0 Z " fill="#F0DEB0" transform="translate(38,101)"/>
<path d="M0 0 C5.53588533 -0.02464775 11.071739 -0.04283496 16.60766602 -0.05493164 C18.4924373 -0.05997244 20.37720465 -0.06680498 22.26196289 -0.07543945 C24.96501636 -0.08751617 27.66801831 -0.09323068 30.37109375 -0.09765625 C31.21900986 -0.10281754 32.06692596 -0.10797882 32.9405365 -0.11329651 C34.96071068 -0.11349195 36.98077934 -0.06206211 39 0 C40 1 40 1 40.0625 3.5625 C40.041875 4.366875 40.02125 5.17125 40 6 C27.15361562 12.53587977 14.11729358 13.50087638 0 13 C0 8.71 0 4.42 0 0 Z " fill="#DAB257" transform="translate(110,101)"/>
<path d="M0 0 C0 3.3 0 6.6 0 10 C2.31 10 4.62 10 7 10 C7.38218767 11.65614657 7.71395102 13.32457024 8 15 C7 16 7 16 3.4375 16.0625 C2.303125 16.041875 1.16875 16.02125 0 16 C0.1404983 18.7920301 0.28715383 21.58349796 0.4375 24.375 C0.47681641 25.1690625 0.51613281 25.963125 0.55664062 26.78125 C0.68893404 31.02601221 0.68893404 31.02601221 2 35 C3.98 35 5.96 35 8 35 C8.33 36.32 8.66 37.64 9 39 C3.89254367 41.60584506 0.755654 42.66028481 -5 41 C-7.04521817 38.87920864 -7.92112678 37.55160368 -8.34057617 34.61816406 C-8.32486572 33.75932617 -8.30915527 32.90048828 -8.29296875 32.015625 C-8.28330078 31.08105469 -8.27363281 30.14648438 -8.26367188 29.18359375 C-8.23853516 28.21550781 -8.21339844 27.24742188 -8.1875 26.25 C-8.17396484 25.26644531 -8.16042969 24.28289062 -8.14648438 23.26953125 C-8.11118726 20.84579585 -8.06188054 18.42317855 -8 16 C-9.65 16 -11.3 16 -13 16 C-12.67 14.35 -12.34 12.7 -12 11 C-10.68 10.67 -9.36 10.34 -8 10 C-8 7.36 -8 4.72 -8 2 C-2.25 0 -2.25 0 0 0 Z " fill="#E9C883" transform="translate(212,62)"/>
<path d="M0 0 C0.90482048 5.38195986 1.13304442 10.5446932 1.09765625 15.99609375 C1.0962413 16.82963882 1.09482635 17.6631839 1.09336853 18.52198792 C1.08781168 21.16052986 1.0752674 23.79898409 1.0625 26.4375 C1.05747942 28.23632689 1.05291749 30.03515513 1.04882812 31.83398438 C1.03785643 36.22268958 1.02062196 40.61132996 1 45 C1.99 45 2.98 45 4 45 C4 46.32 4 47.64 4 49 C-2.08414046 51.26664056 -2.08414046 51.26664056 -5.70776367 50.21166992 C-8.40314945 47.61102025 -8.37624364 46.95730388 -8.56762695 43.3449707 C-8.56683481 41.37173045 -8.53855438 39.39838114 -8.48828125 37.42578125 C-8.48120651 36.38681198 -8.47413177 35.34784271 -8.46684265 34.27738953 C-8.43882688 30.95503091 -8.37607264 27.63435022 -8.3125 24.3125 C-8.28742653 22.06187327 -8.26461171 19.81122017 -8.24414062 17.56054688 C-8.18897694 12.03979092 -8.10527911 6.52001531 -8 1 C-5.29120665 -0.35439668 -2.99066732 -0.06501451 0 0 Z " fill="#C4A966" transform="translate(262,53)"/>
<path d="M0 0 C0.495 1.98 0.495 1.98 1 4 C-2.31751593 5.65875797 -6.02597054 5.12889303 -9.67236328 5.11352539 C-10.56998383 5.11367142 -11.46760437 5.11381744 -12.39242554 5.1139679 C-15.36841218 5.11326953 -18.34433675 5.10548067 -21.3203125 5.09765625 C-23.38011643 5.0957918 -25.43992081 5.09436802 -27.49972534 5.09336853 C-32.92817402 5.08954548 -38.35659605 5.07971699 -43.78503418 5.06866455 C-49.32152954 5.05844588 -54.85802919 5.05386993 -60.39453125 5.04882812 C-71.26303256 5.03809455 -82.13151406 5.02102065 -93 5 C-93.33 3.68 -93.66 2.36 -94 1 C-62.98 0.67 -31.96 0.34 0 0 Z " fill="#C2AA72" transform="translate(142,91)"/>
<path d="M0 0 C9.56622627 1.19577828 16.2271424 3.16686809 24 9 C24.825 9.59941406 25.65 10.19882812 26.5 10.81640625 C31.80102485 15.44652015 36.42079784 22.26834639 37.51171875 29.296875 C37.5 32.3125 37.5 32.3125 37 37 C33.7 37 30.4 37 27 37 C26.85304687 35.83984375 26.85304687 35.83984375 26.703125 34.65625 C25.74040769 27.95042601 24.28292292 22.90926126 21 17 C21 16.34 21 15.68 21 15 C20.01 14.67 19.02 14.34 18 14 C17.278125 13.0925 16.55625 12.185 15.8125 11.25 C11.78003638 6.18200947 6.07102137 3.0869136 0 1 C0 0.67 0 0.34 0 0 Z " fill="#099050" transform="translate(107,52)"/>
<path d="M0 0 C-1.86672763 1.94450795 -3.71138288 3.78368779 -5.87109375 5.40234375 C-13.6473843 11.41463645 -16.64811921 19.42299186 -18 29 C-21.63 29 -25.26 29 -29 29 C-28.72228536 20.3908463 -26.14183724 13.94214152 -19.8125 7.91796875 C-13.46895784 2.8281334 -8.3727426 -0.50236456 0 0 Z " fill="#C2E6CD" transform="translate(87,57)"/>
<path d="M0 0 C0.33 0 0.66 0 1 0 C1.33 1.98 1.66 3.96 2 6 C2.99 6 3.98 6 5 6 C5 6.99 5 7.98 5 9 C5.391875 8.505 5.78375 8.01 6.1875 7.5 C8.55091715 5.54406857 10.01435003 5.75792027 13 6 C11.68 6.33 10.36 6.66 9 7 C10.24976756 10.65316671 10.67098753 11.78065836 14 14 C18.354665 13.67743222 22.02962882 12.80471417 26 11 C26.33 12.65 26.66 14.3 27 16 C23.31637614 19.68362386 20.38255647 20.69083781 15.34375 21.03515625 C10.48314981 20.96224725 6.45798971 20.1589149 2.5625 17.0625 C-0.21576243 13.39519359 -0.11036698 10.26412933 -0.0625 5.8125 C-0.05347656 4.72582031 -0.04445312 3.63914062 -0.03515625 2.51953125 C-0.02355469 1.68808594 -0.01195312 0.85664062 0 0 Z " fill="#CAAD62" transform="translate(154,83)"/>
<path d="M0 0 C-0.33 1.32 -0.66 2.64 -1 4 C-1.66 4 -2.32 4 -3 4 C-2.79375 4.598125 -2.5875 5.19625 -2.375 5.8125 C-2 8 -2 8 -4 11 C-3.01 10.34 -2.02 9.68 -1 9 C0.32 9 1.64 9 3 9 C2.67 9.99 2.34 10.98 2 12 C1.34 12 0.68 12 0 12 C0.33 13.32 0.66 14.64 1 16 C0.34 16 -0.32 16 -1 16 C-1.33 16.66 -1.66 17.32 -2 18 C-2.99 18 -3.98 18 -5 18 C-7.39971554 19.93823179 -7.99796679 20.99390037 -9 24 C-9.66 24 -10.32 24 -11 24 C-11.33 23.34 -11.66 22.68 -12 22 C-12.66 22 -13.32 22 -14 22 C-14.37214551 14.90166902 -14.20842463 10.72177257 -9.4375 5.1875 C-8 4 -8 4 -6 4 C-6 3.34 -6 2.68 -6 2 C-2.25 0 -2.25 0 0 0 Z " fill="#DABE73" transform="translate(114,24)"/>
<path d="M0 0 C2.68639525 0.45661442 2.68639525 0.45661442 6.4375 0.359375 C6.5625 7.984375 6.5625 7.984375 5.4375 11.359375 C6.0975 11.359375 6.7575 11.359375 7.4375 11.359375 C7.4375 12.019375 7.4375 12.679375 7.4375 13.359375 C8.0975 13.689375 8.7575 14.019375 9.4375 14.359375 C7.77083333 14.359375 6.10416667 14.359375 4.4375 14.359375 C4.1075 14.689375 3.7775 15.019375 3.4375 15.359375 C-1.38090497 15.84519765 -5.9518493 16.25834283 -10.25 13.859375 C-12.12671983 10.28467057 -12.3215217 7.30790277 -11.5625 3.359375 C-8.81778711 -1.75577174 -5.07546196 -0.77369847 0 0 Z M-2.5625 4.359375 C-2.5625 6.009375 -2.5625 7.659375 -2.5625 9.359375 C-0.21716049 10.12893636 -0.21716049 10.12893636 2.4375 10.359375 C4.39375978 9.40388519 4.39375978 9.40388519 5.4375 7.359375 C5.68798636 4.23388483 5.68798636 4.23388483 5.4375 1.359375 C2.35740121 1.359375 0.12614864 2.9566018 -2.5625 4.359375 Z " fill="#A59158" transform="translate(233.5625,87.640625)"/>
<path d="M0 0 C2.58340384 -0.02703562 5.16652308 -0.04685611 7.75 -0.0625 C8.47960938 -0.07087891 9.20921875 -0.07925781 9.9609375 -0.08789062 C13.48670558 -0.10391684 16.61034916 0.04707287 20 1 C20 3.31 20 5.62 20 8 C21.98 8.99 23.96 9.98 26 11 C26 11.33 26 11.66 26 12 C16.59330501 11.39647311 7.0232654 10.23192899 -1 5 C-0.67 3.35 -0.34 1.7 0 0 Z " fill="#E6D8AD" transform="translate(38,101)"/>
<path d="M0 0 C4.62 0 9.24 0 14 0 C14 3.96 14 7.92 14 12 C9.36297289 13.5456757 4.87528349 13.05735628 0 13 C0 8.71 0 4.42 0 0 Z " fill="#F2CF78" transform="translate(110,101)"/>
<path d="M0 0 C2.48057628 2.48057628 2.29019005 3.36192464 2.4140625 6.7890625 C2.45273437 7.73007813 2.49140625 8.67109375 2.53125 9.640625 C2.5621875 10.62546875 2.593125 11.6103125 2.625 12.625 C2.66367187 13.61757812 2.70234375 14.61015625 2.7421875 15.6328125 C2.8366314 18.08835385 2.92219875 20.5438841 3 23 C3.99 23 4.98 23 6 23 C5.125 26.875 5.125 26.875 4 28 C2.48071962 28.07179964 0.95832518 28.08392007 -0.5625 28.0625 C-1.38878906 28.05347656 -2.21507812 28.04445313 -3.06640625 28.03515625 C-4.02353516 28.01775391 -4.02353516 28.01775391 -5 28 C-6.17426264 25.65147472 -6.11508173 24.26225935 -6.09765625 21.6484375 C-6.09443359 20.79765625 -6.09121094 19.946875 -6.08789062 19.0703125 C-6.07951172 18.18085937 -6.07113281 17.29140625 -6.0625 16.375 C-6.05798828 15.4778125 -6.05347656 14.580625 -6.04882812 13.65625 C-6.03702591 11.43743352 -6.02056155 9.21874982 -6 7 C-5.34 8.32 -4.68 9.64 -4 11 C-2.68 11 -1.36 11 0 11 C0 7.37 0 3.74 0 0 Z " fill="#C9AC6A" transform="translate(328,75)"/>
<path d="M0 0 C0.33 0.99 0.66 1.98 1 3 C2.65 3 4.3 3 6 3 C6.33 7.62 6.66 12.24 7 17 C8.32 17 9.64 17 11 17 C11.33 13.04 11.66 9.08 12 5 C12.33 5 12.66 5 13 5 C13.06058594 6.13179688 13.12117187 7.26359375 13.18359375 8.4296875 C13.26799917 9.91147145 13.35264717 11.3932416 13.4375 12.875 C13.47681641 13.62136719 13.51613281 14.36773437 13.55664062 15.13671875 C13.71573624 19.19986864 13.71573624 19.19986864 15 23 C16.98 23 18.96 23 21 23 C21.33 24.32 21.66 25.64 22 27 C16.89254367 29.60584506 13.755654 30.66028481 8 29 C5.95478183 26.87920864 5.07887322 25.55160368 4.65942383 22.61816406 C4.67513428 21.75932617 4.69084473 20.90048828 4.70703125 20.015625 C4.71669922 19.08105469 4.72636719 18.14648438 4.73632812 17.18359375 C4.76146484 16.21550781 4.78660156 15.24742188 4.8125 14.25 C4.82603516 13.26644531 4.83957031 12.28289062 4.85351562 11.26953125 C4.88881274 8.84579585 4.93811946 6.42317855 5 4 C3.35 4 1.7 4 0 4 C0 2.68 0 1.36 0 0 Z " fill="#D3B269" transform="translate(199,74)"/>
<path d="M0 0 C0.33 0 0.66 0 1 0 C1.33 2.64 1.66 5.28 2 8 C2.66 7.67 3.32 7.34 4 7 C4 7.66 4 8.32 4 9 C4.99 9 5.98 9 7 9 C7 8.01 7 7.02 7 6 C7.66 6.33 8.32 6.66 9 7 C8.67 13.6 8.34 20.2 8 27 C5.36 27 2.72 27 0 27 C-0.83088343 23.44986171 -1.07031086 20.33590633 -0.87890625 16.69921875 C-0.83056641 15.72275391 -0.78222656 14.74628906 -0.73242188 13.74023438 C-0.67634766 12.73283203 -0.62027344 11.72542969 -0.5625 10.6875 C-0.51029297 9.66076172 -0.45808594 8.63402344 -0.40429688 7.57617188 C-0.27507334 5.05043913 -0.14012709 2.52514739 0 0 Z " fill="#D4B675" transform="translate(303,76)"/>
<path d="M0 0 C1.4540625 0.0309375 1.4540625 0.0309375 2.9375 0.0625 C3.90487162 5.26465926 3.82812943 9.75860938 3 15 C2.90009766 15.68384766 2.80019531 16.36769531 2.69726562 17.07226562 C2.45279548 18.7369909 2.1964029 20.39995822 1.9375 22.0625 C0.6175 22.3925 -0.7025 22.7225 -2.0625 23.0625 C-2.3925 25.3725 -2.7225 27.6825 -3.0625 30.0625 C-3.3925 30.0625 -3.7225 30.0625 -4.0625 30.0625 C-4.08715746 25.9507744 -4.10533959 21.83907722 -4.11743164 17.72729492 C-4.1224708 16.32754772 -4.12930216 14.9278058 -4.13793945 13.52807617 C-4.1500232 11.52004223 -4.15519807 9.51197043 -4.16015625 7.50390625 C-4.16539307 6.29420166 -4.17062988 5.08449707 -4.17602539 3.83813477 C-4.0165786 -0.06025343 -3.94306674 0.08047075 0 0 Z " fill="#E8CF91" transform="translate(259.0625,52.9375)"/>
<path d="M0 0 C0.99 0.33 1.98 0.66 3 1 C3 5.62 3 10.24 3 15 C3.99 15 4.98 15 6 15 C5.67 16.65 5.34 18.3 5 20 C2.1875 20.6875 2.1875 20.6875 -1 21 C-2.875 19.6875 -2.875 19.6875 -4 18 C-4 17.34 -4 16.68 -4 16 C-4.66 16 -5.32 16 -6 16 C-5.67 12.7 -5.34 9.4 -5 6 C-4.01 6.33 -3.02 6.66 -2 7 C-2 6.01 -2 5.02 -2 4 C-2.66 3.67 -3.32 3.34 -4 3 C-3.34 3 -2.68 3 -2 3 C-2 2.34 -2 1.68 -2 1 C-1.34 0.67 -0.68 0.34 0 0 Z " fill="#E0C171" transform="translate(245,83)"/>
<path d="M0 0 C0.33 0 0.66 0 1 0 C1.07347656 1.12148437 1.07347656 1.12148437 1.1484375 2.265625 C1.22320312 3.25046875 1.29796875 4.2353125 1.375 5.25 C1.44460938 6.22453125 1.51421875 7.1990625 1.5859375 8.203125 C1.98465249 10.89633189 2.63507063 12.66963279 4 15 C6.87413125 15.33397787 6.87413125 15.33397787 10 15 C11.91256712 13.11922127 11.91256712 13.11922127 13 11 C13 12.32 13 13.64 13 15 C15.97 15.495 15.97 15.495 19 16 C18.34 16.33 17.68 16.66 17 17 C16.67 17.99 16.34 18.98 16 20 C10.28507411 22.04104496 4.90231966 22.73917338 -1 21 C-3.36022615 19.52667608 -5.01328825 17.98671175 -7 16 C-4.30234372 14.65117186 -2.84835666 15.19661735 0 16 C0.33 16.66 0.66 17.32 1 18 C0.53029274 15.8080328 0.0204734 14.03733385 -1.0625 12.0625 C-2.19063924 9.58059367 -2.14977637 7.69597461 -2 5 C-1.67 5 -1.34 5 -1 5 C-0.67 3.35 -0.34 1.7 0 0 Z " fill="#BC9F63" transform="translate(276,82)"/>
<path d="M0 0 C2.6875 2 2.6875 2 4 4 C2 4 0 4 -2 4 C-1.67 6.31 -1.34 8.62 -1 11 C-1.66 11 -2.32 11 -3 11 C-3.33 9.02 -3.66 7.04 -4 5 C-8.82442184 6.26946514 -8.82442184 6.26946514 -12 10 C-12.33 9.01 -12.66 8.02 -13 7 C-13.928125 7.99 -13.928125 7.99 -14.875 9 C-17 11 -17 11 -19 11 C-19.33 9.68 -19.66 8.36 -20 7 C-18.87720538 6.01830524 -17.75168527 5.03972702 -16.625 4.0625 C-15.68527344 3.24458984 -15.68527344 3.24458984 -14.7265625 2.41015625 C-10.45358891 -1.07976109 -5.27945455 -0.60046972 0 0 Z " fill="#BEAC7B" transform="translate(175,72)"/>
<path d="M0 0 C1.9375 1.6875 1.9375 1.6875 3 4 C2.57446809 9.42553191 2.57446809 9.42553191 1 11 C-6.30207197 11.58887677 -6.30207197 11.58887677 -9 9.3125 C-10.18938368 6.56205024 -10.53132822 4.96025725 -10 2 C-6.91006039 -1.56531493 -4.33279824 -1.38280795 0 0 Z " fill="#DDBD72" transform="translate(96,37)"/>
<path d="M0 0 C2.31243792 -0.02685412 4.6249627 -0.04632841 6.9375 -0.0625 C8.22527344 -0.07410156 9.51304688 -0.08570312 10.83984375 -0.09765625 C14 0 14 0 15 1 C15.14475933 4.8361222 15.17661508 8.32307787 14 12 C9.6109185 11.48964169 6.66291938 10.47785723 3 8 C3.33 5.69 3.66 3.38 4 1 C2.68 0.67 1.36 0.34 0 0 Z " fill="#F7EDCD" transform="translate(54,101)"/>
<path d="M0 0 C0.33 0 0.66 0 1 0 C1 2.64 1 5.28 1 8 C-0.32 8.33 -1.64 8.66 -3 9 C-3 8.34 -3 7.68 -3 7 C-34.68 7 -66.36 7 -99 7 C-99 6.67 -99 6.34 -99 6 C-87.71628471 5.84562782 -76.43250628 5.69745356 -65.14860821 5.5570364 C-59.90819044 5.49163304 -54.66781712 5.42415203 -49.42749023 5.35180664 C-44.36360364 5.28197548 -39.29967325 5.21775374 -34.23566628 5.15730476 C-32.31050885 5.13336069 -30.38537481 5.10744752 -28.46027184 5.07946587 C-9.09914241 4.80053066 -9.09914241 4.80053066 0 6 C0 4.02 0 2.04 0 0 Z " fill="#196240" transform="translate(144,83)"/>
<path d="M0 0 C0.99 0.33 1.98 0.66 3 1 C4.14109582 4.42328747 3.84733551 5.06602175 2.625 8.3125 C1.35240222 11.86880066 0.4823214 15.2378931 0 19 C-2.97 19 -5.94 19 -9 19 C-9 18.01 -9 17.02 -9 16 C-8.34 15.67 -7.68 15.34 -7 15 C-6.23460327 12.82037649 -6.23460327 12.82037649 -5.625 10.25 C-4.44810791 6.03732985 -3.09241885 3.19905399 0 0 Z " fill="#09A056" transform="translate(54,70)"/>
<path d="M0 0 C1.65 0 3.3 0 5 0 C4.61328125 0.42410156 4.2265625 0.84820312 3.828125 1.28515625 C-2.31909323 8.2083847 -5.31184901 13.85584883 -7 23 C-3.37 23 0.26 23 4 23 C4 23.33 4 23.66 4 24 C3.41992188 24.06058594 2.83984375 24.12117188 2.2421875 24.18359375 C-2.20092863 24.66016561 -6.59905423 25.21008666 -11 26 C-11.32032294 18.32368955 -9.07252278 11.16974072 -4.875 4.75 C-3 3 -3 3 -1 3 C-0.67 2.01 -0.34 1.02 0 0 Z " fill="#0E7843" transform="translate(65,63)"/>
<path d="M0 0 C0.66 0.33 1.32 0.66 2 1 C0.95125002 3.62187494 0.35068687 4.79371361 -2.125 6.25 C-2.74375 6.4975 -3.3625 6.745 -4 7 C-3.34 8.98 -2.68 10.96 -2 13 C-1.34 13 -0.68 13 0 13 C3.25968109 22.41002278 3.25968109 22.41002278 4 27 C2.51545194 26.40917986 1.03745649 25.80187345 -0.4375 25.1875 C-1.67306641 24.68283203 -1.67306641 24.68283203 -2.93359375 24.16796875 C-5 23 -5 23 -6 20 C-6.1190686 18.21120198 -6.17522113 16.4177144 -6.1875 14.625 C-6.20167969 13.68914062 -6.21585937 12.75328125 -6.23046875 11.7890625 C-5.79321363 6.49753441 -3.89807322 3.50826589 0 0 Z " fill="#E2BC68" transform="translate(274,74)"/>
<path d="M0 0 C9.59718328 1.19964791 16.1786087 3.19751468 24 9 C24.94875 9.70125 25.8975 10.4025 26.875 11.125 C28.92809322 12.93655284 30.46610715 14.73952632 32 17 C31.67 17.66 31.34 18.32 31 19 C30.2575 18.05125 29.515 17.1025 28.75 16.125 C26.72154781 13.67467599 25.0422152 12.12674637 22 11 C22 10.34 22 9.68 22 9 C20.68 8.67 19.36 8.34 18 8 C18.66 10.31 19.32 12.62 20 15 C19.34 14.29875 18.68 13.5975 18 12.875 C12.66957661 7.574692 7.04016774 3.6400629 0 1 C0 0.67 0 0.34 0 0 Z " fill="#108551" transform="translate(107,52)"/>
<path d="M0 0 C3.80984844 2.77079887 4.06840752 6.62868145 5 11 C6.65 11 8.3 11 10 11 C9.01 12.485 9.01 12.485 8 14 C5.43359375 14.328125 5.43359375 14.328125 2.4375 14.25 C1.44621094 14.23453125 0.45492187 14.2190625 -0.56640625 14.203125 C-3 14 -3 14 -4 13 C-3.77265843 8.98363218 -3.57290919 6.67707449 -0.9375 3.5625 C0.0215625 2.7890625 0.0215625 2.7890625 1 2 C0.34 1.67 -0.32 1.34 -1 1 C-0.67 0.67 -0.34 0.34 0 0 Z " fill="#DCB25D" transform="translate(227,88)"/>
<path d="M0 0 C-3.21894674 3.35306952 -6.68194532 6.37798293 -10.1953125 9.4140625 C-11.50440505 10.56447716 -12.76768973 11.76768973 -14 13 C-16 12 -16 12 -17 9 C-18.65 9.66 -20.3 10.32 -22 11 C-15.74974278 4.16378116 -9.36191608 -0.17336882 0 0 Z " fill="#BFE6CD" transform="translate(87,57)"/>
<path d="M0 0 C4.62 0 9.24 0 14 0 C13.34 1.98 12.68 3.96 12 6 C6.97874074 6.77916092 3.02296004 7.13016601 -2 6 C-1.49396008 3.83125748 -1.00016187 2.00032373 0 0 Z " fill="#DDC27F" transform="translate(185,85)"/>
<path d="M0 0 C0.93423645 3.01031744 1.04449911 3.86650268 0 7 C2.31 7.33 4.62 7.66 7 8 C6.67 8.66 6.34 9.32 6 10 C4.02 10 2.04 10 0 10 C-0.33 10.99 -0.66 11.98 -1 13 C-1.66 13 -2.32 13 -3 13 C-3.66 12.01 -4.32 11.02 -5 10 C-5.33 11.65 -5.66 13.3 -6 15 C-6.33 15 -6.66 15 -7 15 C-7 10.71 -7 6.42 -7 2 C-6.67 2.66 -6.34 3.32 -6 4 C-5.38125 3.34 -4.7625 2.68 -4.125 2 C-2 0 -2 0 0 0 Z " fill="#E7CE88" transform="translate(162,79)"/>
<path d="M0 0 C0.99 0 1.98 0 3 0 C9.65793635 0.39484694 15.68279107 1.90305591 22 4 C18.57094418 5.37162233 16.45585389 4.54066598 13.04785156 3.46240234 C9.02636616 2.55435593 4.95748812 3.03526439 0.875 3.3125 C-0.04627686 3.36591553 -0.96755371 3.41933105 -1.91674805 3.47436523 C-4.61235812 3.63498388 -7.30608498 3.81325746 -10 4 C-10.73911621 4.05091797 -11.47823242 4.10183594 -12.23974609 4.15429688 C-15.82908557 4.40739688 -19.41536098 4.6874248 -23 5 C-20.28657384 2.28657384 -17.38955687 2.05959995 -13.75 1.375 C-13.09386719 1.2409375 -12.43773438 1.106875 -11.76171875 0.96875 C-7.78144682 0.19326958 -4.04826742 -0.12870214 0 0 Z " fill="#195C3D" transform="translate(96,49)"/>
<path d="M0 0 C0.3125 2.1875 0.3125 2.1875 0 5 C-2.5 7.8125 -2.5 7.8125 -5 10 C-5.99 9.01 -6.98 8.02 -8 7 C-10.68946057 12.17203956 -12.86499309 17.58036707 -15 23 C-15.66 23 -16.32 23 -17 23 C-16.57058462 16.88083081 -15.63129131 13.00529343 -12 8 C-8.8125 6.25 -8.8125 6.25 -6 5 C-5.67 4.01 -5.34 3.02 -5 2 C-1.63157895 0 -1.63157895 0 0 0 Z " fill="#0C9D5A" transform="translate(62,63)"/>
<path d="M0 0 C1.32 0.33 2.64 0.66 4 1 C3.45276317 4.37462715 2.9451 6.08235 1 9 C0.54605448 11.27912938 0.54605448 11.27912938 0.375 13.6875 C0.30023438 14.49574219 0.22546875 15.30398437 0.1484375 16.13671875 C0.09945313 16.75160156 0.05046875 17.36648437 0 18 C-0.33 16.68 -0.66 15.36 -1 14 C-2.32 14.33 -3.64 14.66 -5 15 C-6.125 8.25 -6.125 8.25 -5 6 C-4.01 6 -3.02 6 -2 6 C-1.855625 5.38125 -1.71125 4.7625 -1.5625 4.125 C-1 2 -1 2 0 0 Z " fill="#E9CF8C" transform="translate(276,73)"/>
<path d="M0 0 C0.33 0 0.66 0 1 0 C1 4.62 1 9.24 1 14 C-1.64 14 -4.28 14 -7 14 C-8.29676812 9.38926889 -7.71109139 5.66159911 -7 1 C-6.5875 1.639375 -6.175 2.27875 -5.75 2.9375 C-3.82189513 5.20990931 -2.88575819 5.60196439 0 6 C0 4.02 0 2.04 0 0 Z " fill="#CCA75D" transform="translate(310,89)"/>
<path d="M0 0 C1.65 0 3.3 0 5 0 C5.20625 1.11375 5.4125 2.2275 5.625 3.375 C6.61628301 7.26599195 6.61628301 7.26599195 10.125 8.4375 C11.07375 8.623125 12.0225 8.80875 13 9 C12.67 9.99 12.34 10.98 12 12 C10.02 12 8.04 12 6 12 C6 11.34 6 10.68 6 10 C4.68 10 3.36 10 2 10 C2 9.34 2 8.68 2 8 C1.34 8 0.68 8 0 8 C0 5.36 0 2.72 0 0 Z " fill="#EAD18D" transform="translate(205,65)"/>
<path d="M0 0 C0 3.3 0 6.6 0 10 C-0.33 10 -0.66 10 -1 10 C-1.33 8.02 -1.66 6.04 -2 4 C-3.65 3.67 -5.3 3.34 -7 3 C-7 5.64 -7 8.28 -7 11 C-6.34 11 -5.68 11 -5 11 C-5 12.32 -5 13.64 -5 15 C-4.34 15.33 -3.68 15.66 -3 16 C-3.66 16 -4.32 16 -5 16 C-5.33 19.63 -5.66 23.26 -6 27 C-6.33 27 -6.66 27 -7 27 C-7 23.04 -7 19.08 -7 15 C-8.65 15 -10.3 15 -12 15 C-12 13.68 -12 12.36 -12 11 C-10.68 10.67 -9.36 10.34 -8 10 C-8 7.36 -8 4.72 -8 2 C-2.25 0 -2.25 0 0 0 Z " fill="#E8CC89" transform="translate(212,62)"/>
<path d="M0 0 C2.5 0.125 2.5 0.125 3.5 1.125 C3.57205511 2.81108966 3.58386068 4.50000659 3.5625 6.1875 C3.55347656 7.10660156 3.54445313 8.02570313 3.53515625 8.97265625 C3.52355469 9.68292969 3.51195313 10.39320312 3.5 11.125 C0.86 11.125 -1.78 11.125 -4.5 11.125 C-4.5 0.225 -4.5 0.225 0 0 Z " fill="#D4EDD8" transform="translate(64.5,73.875)"/>
<path d="M0 0 C0.99 0.33 1.98 0.66 3 1 C3 4.96 3 8.92 3 13 C-2.61 13 -8.22 13 -14 13 C-12.68 12.67 -11.36 12.34 -10 12 C-9.67 10.02 -9.34 8.04 -9 6 C-8.67 6.66 -8.34 7.32 -8 8 C-6.00714063 8.37366113 -4.00636471 8.70740515 -2 9 C-1.67 9.33 -1.34 9.66 -1 10 C-0.67 6.7 -0.34 3.4 0 0 Z " fill="#E2D1A4" transform="translate(78,101)"/>
<path d="M0 0 C3.3 0.33 6.6 0.66 10 1 C10.33 3.31 10.66 5.62 11 8 C8.39517051 8.94721072 6.69325299 9.30222393 4.109375 8.17578125 C2.37417127 7.17063275 0.68359577 6.0893855 -1 5 C-0.67 3.35 -0.34 1.7 0 0 Z " fill="#EDD185" transform="translate(38,101)"/>
<path d="M0 0 C0.33 0.99 0.66 1.98 1 3 C2.65 3 4.3 3 6 3 C6 8.61 6 14.22 6 20 C6.66 20 7.32 20 8 20 C8 20.99 8 21.98 8 23 C8.66 23 9.32 23 10 23 C10 24.32 10 25.64 10 27 C12.97 27.33 15.94 27.66 19 28 C14.43872872 30.28063564 12.84177784 30.23245254 8 29 C5.94065949 26.88405652 5.07956039 25.55640945 4.65942383 22.61816406 C4.67513428 21.75932617 4.69084473 20.90048828 4.70703125 20.015625 C4.71669922 19.08105469 4.72636719 18.14648438 4.73632812 17.18359375 C4.76146484 16.21550781 4.78660156 15.24742188 4.8125 14.25 C4.82603516 13.26644531 4.83957031 12.28289062 4.85351562 11.26953125 C4.88881274 8.84579585 4.93811946 6.42317855 5 4 C3.35 4 1.7 4 0 4 C0 2.68 0 1.36 0 0 Z " fill="#AB985E" transform="translate(199,74)"/>
<path d="M0 0 C5.28 0 10.56 0 16 0 C16 0.66 16 1.32 16 2 C24.25 2 32.5 2 41 2 C41 2.33 41 2.66 41 3 C27.8 3 14.6 3 1 3 C0.67 2.01 0.34 1.02 0 0 Z " fill="#CAB682" transform="translate(48,93)"/>
<path d="M0 0 C-3.75 2 -3.75 2 -6 2 C-6 2.66 -6 3.32 -6 4 C-7.65 3.67 -9.3 3.34 -11 3 C-11.33 3.66 -11.66 4.32 -12 5 C-9.03 5 -6.06 5 -3 5 C-5.55337724 7.55337724 -6.95274418 7.43261395 -10.5 7.75 C-11.4796875 7.84796875 -12.459375 7.9459375 -13.46875 8.046875 C-16 8 -16 8 -18 6 C-18 5.01 -18 4.02 -18 3 C-11.92122066 -0.24201565 -6.81598387 -0.33278764 0 0 Z " fill="#B3A776" transform="translate(242,72)"/>
<path d="M0 0 C1.32 0 2.64 0 4 0 C4 0.66 4 1.32 4 2 C4.66 2.33 5.32 2.66 6 3 C5.649375 3.9075 5.29875 4.815 4.9375 5.75 C4.03531221 8.87758436 3.86618493 10.05208081 5 13 C3.33388095 13.042721 1.66617115 13.04063832 0 13 C-1 12 -1 12 -1.1328125 9.53125 C-1.13023438 8.5309375 -1.12765625 7.530625 -1.125 6.5 C-1.12757812 5.4996875 -1.13015625 4.499375 -1.1328125 3.46875 C-1 1 -1 1 0 0 Z " fill="#D6B46A" transform="translate(81,101)"/>
<path d="M0 0 C0.33 0 0.66 0 1 0 C1 1.65 1 3.3 1 5 C1.99 5 2.98 5 4 5 C3.67 6.65 3.34 8.3 3 10 C0.1875 10.6875 0.1875 10.6875 -3 11 C-4.875 9.6875 -4.875 9.6875 -6 8 C-6 7.34 -6 6.68 -6 6 C-6.66 5.67 -7.32 5.34 -8 5 C-4.93882432 2.37613513 -4.26826873 2 0 2 C0 1.34 0 0.68 0 0 Z " fill="#DFB862" transform="translate(247,93)"/>
<path d="M0 0 C0.33 1.65 0.66 3.3 1 5 C1.66 5 2.32 5 3 5 C2.67 6.32 2.34 7.64 2 9 C0.35 9 -1.3 9 -3 9 C-3 7.68 -3 6.36 -3 5 C-6.3 4.34 -9.6 3.68 -13 3 C-12.67 2.01 -12.34 1.02 -12 0 C-9.525 0.99 -9.525 0.99 -7 2 C-7 1.34 -7 0.68 -7 0 C-4.3333581 -1.33332095 -2.83319697 -0.67102033 0 0 Z " fill="#EDD28F" transform="translate(243,74)"/>
<path d="M0 0 C2.4375 1.1875 2.4375 1.1875 5 3 C5.8125 5.6875 5.8125 5.6875 6 8 C4.54263913 8.19491452 3.08405407 8.38069358 1.625 8.5625 C0.81289062 8.66691406 0.00078125 8.77132812 -0.8359375 8.87890625 C-3 9 -3 9 -5 8 C-4.45773019 4.20411134 -2.79872437 2.52788007 0 0 Z M3 0 C3.99 0.495 3.99 0.495 5 1 C4.01 1.495 4.01 1.495 3 2 C3 1.34 3 0.68 3 0 Z " fill="#ECCF79" transform="translate(110,40)"/>
<path d="M0 0 C0.33 0 0.66 0 1 0 C1.33 3.3 1.66 6.6 2 10 C3.65 10 5.3 10 7 10 C6.125 14.875 6.125 14.875 5 16 C2.66702567 16.04092937 0.33294775 16.04241723 -2 16 C-1.85975781 13.52039864 -1.7130815 11.04147598 -1.5625 8.5625 C-1.52318359 7.85544922 -1.48386719 7.14839844 -1.44335938 6.41992188 C-1.11328125 1.11328125 -1.11328125 1.11328125 0 0 Z " fill="#CBAF6E" transform="translate(290,82)"/>
<path d="M0 0 C0.66 0 1.32 0 2 0 C2 0.66 2 1.32 2 2 C1.34 2 0.68 2 0 2 C0.495 2.45375 0.99 2.9075 1.5 3.375 C3 5 3 5 3 7 C4.98 6.01 6.96 5.02 9 4 C7.69063102 6.92090003 6.24380538 8.75619462 4 11 C3.67 11.99 3.34 12.98 3 14 C2.34 14 1.68 14 1 14 C0.67 13.34 0.34 12.68 0 12 C-0.66 12 -1.32 12 -2 12 C-2.05395478 10.37536158 -2.09277195 8.75021459 -2.125 7.125 C-2.14820312 6.22007813 -2.17140625 5.31515625 -2.1953125 4.3828125 C-2 2 -2 2 0 0 Z " fill="#CFB97B" transform="translate(102,34)"/>
<path d="M0 0 C3.63 0 7.26 0 11 0 C12 4 12 4 12 8 C11.34 8.66 10.68 9.32 10 10 C9.608125 9.34 9.21625 8.68 8.8125 8 C7.14583333 5.70833333 7.14583333 5.70833333 4.3125 5.75 C3.1678125 5.87375 3.1678125 5.87375 2 6 C2 4.68 2 3.36 2 2 C1.34 2 0.68 2 0 2 C0 1.34 0 0.68 0 0 Z " fill="#CBB981" transform="translate(278,72)"/>
<path d="M0 0 C0.33 0.66 0.66 1.32 1 2 C1.99 1.67 2.98 1.34 4 1 C8 5.75 8 5.75 8 8 C7.34 8 6.68 8 6 8 C6 8.99 6 9.98 6 11 C4.33388095 11.042721 2.66617115 11.04063832 1 11 C-0.57351881 9.42648119 -0.38460149 7.67045509 -0.625 5.5 C-0.72039062 4.6853125 -0.81578125 3.870625 -0.9140625 3.03125 C-0.95660156 2.02578125 -0.95660156 2.02578125 -1 1 C-0.67 0.67 -0.34 0.34 0 0 Z " fill="#EDD08A" transform="translate(304,74)"/>
<path d="M0 0 C0.66 0.33 1.32 0.66 2 1 C-2.35690968 8.00217628 -2.35690968 8.00217628 -6 10 C-6.99 9.67 -7.98 9.34 -9 9 C-9 8.01 -9 7.02 -9 6 C-9.66 5.67 -10.32 5.34 -11 5 C-8.60236815 2.60236815 -7.66726502 2.65719414 -4.375 2.375 C-3.55773437 2.30023438 -2.74046875 2.22546875 -1.8984375 2.1484375 C-1.27195312 2.09945312 -0.64546875 2.05046875 0 2 C0 1.34 0 0.68 0 0 Z " fill="#DCBF71" transform="translate(124,37)"/>
<path d="M0 0 C-0.28256092 1.93884889 -0.5763793 3.87605961 -0.875 5.8125 C-1.03742188 6.89144531 -1.19984375 7.97039063 -1.3671875 9.08203125 C-2 12 -2 12 -4 15 C-3.67 10.71 -3.34 6.42 -3 2 C-4.4025 2.350625 -5.805 2.70125 -7.25 3.0625 C-10.57052408 3.89263102 -12.72814447 4.07310858 -16 3 C-10.47239641 0.89424625 -5.93002267 -0.37851209 0 0 Z " fill="#A6966A" transform="translate(131,20)"/>
<path d="M0 0 C0.33 0 0.66 0 1 0 C1.19491452 1.45736087 1.38069358 2.91594593 1.5625 4.375 C1.66691406 5.18710938 1.77132813 5.99921875 1.87890625 6.8359375 C2 9 2 9 1 11 C-1.5625 11.625 -1.5625 11.625 -4 12 C-4.33 9.69 -4.66 7.38 -5 5 C-4.360625 4.731875 -3.72125 4.46375 -3.0625 4.1875 C-0.66868314 3.11332248 -0.66868314 3.11332248 0 0 Z " fill="#ECCE86" transform="translate(327,75)"/>
<path d="M0 0 C0.33 0.99 0.66 1.98 1 3 C1.99 3 2.98 3 4 3 C3.34 4.32 2.68 5.64 2 7 C2.99 7.33 3.98 7.66 5 8 C3.02 8.99 3.02 8.99 1 10 C0.46375 9.030625 -0.0725 8.06125 -0.625 7.0625 C-2.72005826 3.72464389 -2.72005826 3.72464389 -6.25 3.125 C-7.1575 3.08375 -8.065 3.0425 -9 3 C-7.14340032 -0.71319936 -3.69365381 -0.09982848 0 0 Z " fill="#C0B285" transform="translate(311,72)"/>
<path d="M0 0 C1.8125 0.60416667 3.625 1.20833333 5.4375 1.8125 C5.4375 2.4725 5.4375 3.1325 5.4375 3.8125 C3.4575 4.8025 3.4575 4.8025 1.4375 5.8125 C0.7775 4.8225 0.1175 3.8325 -0.5625 2.8125 C-0.8925 3.8025 -1.2225 4.7925 -1.5625 5.8125 C-2.54100195 6.83354551 -3.54230427 7.8331121 -4.5625 8.8125 C-5.2225 9.8025 -5.8825 10.7925 -6.5625 11.8125 C-7.04680493 4.54792601 -7.04680493 4.54792601 -4.875 1.25 C-2.5625 -0.1875 -2.5625 -0.1875 0 0 Z " fill="#B69D69" transform="translate(228.5625,87.1875)"/>
<path d="M0 0 C2.91517292 1.07401108 4.77810176 1.77810176 7 4 C6.625 6.125 6.625 6.125 6 8 C5.38125 8.144375 4.7625 8.28875 4.125 8.4375 C1.96741678 8.93152225 1.96741678 8.93152225 0 10 C-0.74926071 6.33694766 -1.2380014 3.57644848 0 0 Z " fill="#D8C082" transform="translate(289,73)"/>
<path d="M0 0 C-3.02272532 3.25524265 -6.25718301 5.61820737 -10 8 C-10.12375 7.360625 -10.2475 6.72125 -10.375 6.0625 C-10.684375 5.0415625 -10.684375 5.0415625 -11 4 C-11.66 3.67 -12.32 3.34 -13 3 C-8.44573816 0.33409063 -5.26053037 -0.31563182 0 0 Z " fill="#BAE3C9" transform="translate(87,57)"/>
<path d="M0 0 C-1.269553 0.64834654 -2.54069706 1.29357815 -3.8125 1.9375 C-4.52019531 2.29714844 -5.22789063 2.65679687 -5.95703125 3.02734375 C-8 4 -8 4 -11 5 C-11.33 5.99 -11.66 6.98 -12 8 C-12.33 7.34 -12.66 6.68 -13 6 C-13.99 5.34 -14.98 4.68 -16 4 C-11.82557432 0.00707109 -5.47510327 -1.82503442 0 0 Z " fill="#107F4E" transform="translate(80,54)"/>
<path d="M0 0 C0.66 0.33 1.32 0.66 2 1 C0.48601545 4.78496138 -0.0144396 5.0072198 -4 7 C-4 11.29 -4 15.58 -4 20 C-4.66 20 -5.32 20 -6 20 C-6.05449838 18.27119018 -6.09301688 16.54187288 -6.125 14.8125 C-6.14820313 13.84957031 -6.17140625 12.88664062 -6.1953125 11.89453125 C-5.83365355 6.5347456 -3.94085545 3.54676991 0 0 Z " fill="#C6B47E" transform="translate(274,74)"/>
<path d="M0 0 C1.5 1.125 1.5 1.125 3 3 C3.1875 6.1875 3.1875 6.1875 3 9 C2.360625 9.12375 1.72125 9.2475 1.0625 9.375 C0.381875 9.58125 -0.29875 9.7875 -1 10 C-1.33 10.66 -1.66 11.32 -2 12 C-2.66 12 -3.32 12 -4 12 C-3.56802365 7.2482602 -2.67230705 5.07999946 1 2 C0.34 1.67 -0.32 1.34 -1 1 C-0.67 0.67 -0.34 0.34 0 0 Z " fill="#DEBC6C" transform="translate(227,88)"/>
<path d="M0 0 C0.33 3.3 0.66 6.6 1 10 C-0.32 10 -1.64 10 -3 10 C-3.66 10.66 -4.32 11.32 -5 12 C-4.91253716 10.56138706 -4.80434652 9.12402492 -4.6875 7.6875 C-4.62949219 6.88699219 -4.57148438 6.08648437 -4.51171875 5.26171875 C-3.99058337 2.95837994 -2.79582327 0 0 0 Z " fill="#E5C273" transform="translate(210,82)"/>
<path d="M0 0 C1.57674249 3.15348498 0.67891171 5.60544147 0 9 C-1.5625 12.4375 -1.5625 12.4375 -3 15 C-3.66 15 -4.32 15 -5 15 C-4.56826496 8.84777564 -3.34594658 5.18082051 0 0 Z " fill="#147F4F" transform="translate(50,71)"/>
<path d="M0 0 C2.875 0.3125 2.875 0.3125 6 1 C6.66 1.99 7.32 2.98 8 4 C6 4 4 4 2 4 C2.33 6.31 2.66 8.62 3 11 C2.34 11 1.68 11 1 11 C0.67 9.02 0.34 7.04 0 5 C-1.32 4.67 -2.64 4.34 -4 4 C-2.68 3.34 -1.36 2.68 0 2 C0 1.34 0 0.68 0 0 Z " fill="#BBAA7D" transform="translate(171,72)"/>
<path d="M0 0 C0.33 0 0.66 0 1 0 C1 1.65 1 3.3 1 5 C-8.41002278 9.59225513 -8.41002278 9.59225513 -13 9 C-13 8.34 -13 7.68 -13 7 C-4.57142857 3.57142857 -4.57142857 3.57142857 0 4 C0 2.68 0 1.36 0 0 Z " fill="#AB9355" transform="translate(149,102)"/>
<path d="M0 0 C6.75 -0.125 6.75 -0.125 9 1 C9 1.99 9 2.98 9 4 C8.01 4 7.02 4 6 4 C6 4.66 6 5.32 6 6 C6.66 6 7.32 6 8 6 C8 6.66 8 7.32 8 8 C6.68 7.67 5.36 7.34 4 7 C3.896875 6.21625 3.79375 5.4325 3.6875 4.625 C3.22404978 1.66954819 3.22404978 1.66954819 0 0 Z " fill="#F2DE99" transform="translate(44,101)"/>
<path d="M0 0 C0.33 1.32 0.66 2.64 1 4 C3.97 4.495 3.97 4.495 7 5 C6.01 5.495 6.01 5.495 5 6 C4.67 6.99 4.34 7.98 4 9 C1.9375 9.6875 1.9375 9.6875 0 10 C-1 8 -1 8 -1 7 C-3.97 6.505 -3.97 6.505 -7 6 C-7 5.67 -7 5.34 -7 5 C-5.5459375 4.5978125 -5.5459375 4.5978125 -4.0625 4.1875 C-3.051875 3.795625 -2.04125 3.40375 -1 3 C-0.67 2.01 -0.34 1.02 0 0 Z " fill="#98844F" transform="translate(288,93)"/>
<path d="M0 0 C1 2 1 2 0 7 C3.63 7 7.26 7 11 7 C11 7.33 11 7.66 11 8 C10.41992188 8.06058594 9.83984375 8.12117188 9.2421875 8.18359375 C4.79907137 8.66016561 0.40094577 9.21008666 -4 10 C-4 8.02 -4 6.04 -4 4 C-3.01 5.485 -3.01 5.485 -2 7 C-1.34 4.69 -0.68 2.38 0 0 Z " fill="#248453" transform="translate(58,79)"/>
<path d="M0 0 C0.33 1.65 0.66 3.3 1 5 C-1.25 7.0625 -1.25 7.0625 -4 9 C-6.3125 8.75 -6.3125 8.75 -8 8 C-7.67 7.34 -7.34 6.68 -7 6 C-5.02 6.495 -5.02 6.495 -3 7 C-3 5.68 -3 4.36 -3 3 C-3.66 2.67 -4.32 2.34 -5 2 C-2 0 -2 0 0 0 Z " fill="#A18D59" transform="translate(180,94)"/>
<path d="M0 0 C0 3.3 0 6.6 0 10 C-0.33 10 -0.66 10 -1 10 C-1.33 8.02 -1.66 6.04 -2 4 C-3.65 3.67 -5.3 3.34 -7 3 C-7 5.64 -7 8.28 -7 11 C-7.99 10.67 -8.98 10.34 -10 10 C-9.34 10 -8.68 10 -8 10 C-8 7.36 -8 4.72 -8 2 C-2.25 0 -2.25 0 0 0 Z " fill="#A49575" transform="translate(212,62)"/>
<path d="M0 0 C-0.875 3.875 -0.875 3.875 -2 5 C-3.51928038 5.07179964 -5.04167482 5.08392007 -6.5625 5.0625 C-7.38878906 5.05347656 -8.21507812 5.04445313 -9.06640625 5.03515625 C-9.70449219 5.02355469 -10.34257812 5.01195313 -11 5 C-10.01 4.67 -9.02 4.34 -8 4 C-8 3.34 -8 2.68 -8 2 C-5.09399739 0.74335022 -3.20395416 0 0 0 Z " fill="#B7A15C" transform="translate(334,98)"/>
<path d="M0 0 C0.33 1.32 0.66 2.64 1 4 C1.99 3.67 2.98 3.34 4 3 C5.76462683 6.08809695 6 7.23312136 6 11 C5.34 11 4.68 11 4 11 C3.34 10.01 2.68 9.02 2 8 C1.67 9.65 1.34 11.3 1 13 C0.67 13 0.34 13 0 13 C0 8.71 0 4.42 0 0 Z " fill="#E5C580" transform="translate(155,81)"/>
<path d="M0 0 C0.33 0 0.66 0 1 0 C1 1.65 1 3.3 1 5 C1.99 5 2.98 5 4 5 C3.67 6.65 3.34 8.3 3 10 C1.02 10.33 -0.96 10.66 -3 11 C-3 10.34 -3 9.68 -3 9 C-2.01 9 -1.02 9 0 9 C-0.185625 7.88625 -0.37125 6.7725 -0.5625 5.625 C-1 2 -1 2 0 0 Z " fill="#B79966" transform="translate(247,93)"/>
<path d="M0 0 C0.98484375 0.02707031 1.9696875 0.05414063 2.984375 0.08203125 C3.73203125 0.11683594 4.4796875 0.15164062 5.25 0.1875 C1.5 2.1875 1.5 2.1875 -0.75 2.1875 C-0.75 2.8475 -0.75 3.5075 -0.75 4.1875 C-3.72 3.8575 -6.69 3.5275 -9.75 3.1875 C-6.47698081 0.21840402 -4.36934238 -0.15604794 0 0 Z " fill="#BEAD80" transform="translate(236.75,71.8125)"/>
<path d="M0 0 C-2 3 -2 3 -3.9453125 3.51171875 C-4.66460937 3.56972656 -5.38390625 3.62773438 -6.125 3.6875 C-8.043125 3.8421875 -8.043125 3.8421875 -10 4 C-10.33 3.01 -10.66 2.02 -11 1 C-6.87831311 -0.62950412 -4.29299643 -1.26264601 0 0 Z " fill="#E9D59D" transform="translate(174,73)"/>
<path d="M0 0 C0.99 0.33 1.98 0.66 3 1 C2.42415568 3.38564077 1.77772405 5.66682784 1 8 C0.01 7.67 -0.98 7.34 -2 7 C-3.1875 4.4375 -3.1875 4.4375 -4 2 C-3.01 2 -2.02 2 -1 2 C-0.67 1.34 -0.34 0.68 0 0 Z " fill="#DFBF6F" transform="translate(162,94)"/>
<path d="M0 0 C0.33 0.66 0.66 1.32 1 2 C3.97 1.34 6.94 0.68 10 0 C9.67 0.99 9.34 1.98 9 3 C9.66 3.66 10.32 4.32 11 5 C6.57377049 6.2295082 6.57377049 6.2295082 3.8125 5.125 C3.214375 4.75375 2.61625 4.3825 2 4 C1.34 3.67 0.68 3.34 0 3 C0 2.01 0 1.02 0 0 Z " fill="#B1A173" transform="translate(162,83)"/>
<path d="M0 0 C0.66 0.99 1.32 1.98 2 3 C1.125 6.1875 1.125 6.1875 0 9 C2.64 9.33 5.28 9.66 8 10 C8.33 9.34 8.66 8.68 9 8 C9 8.99 9 9.98 9 11 C5.37 11 1.74 11 -2 11 C-1.125 2.25 -1.125 2.25 0 0 Z " fill="#B4E8C8" transform="translate(60,75)"/>
<path d="M0 0 C0.433125 0.9590625 0.433125 0.9590625 0.875 1.9375 C1.82823451 4.15206079 1.82823451 4.15206079 4 5 C4.33 4.01 4.66 3.02 5 2 C6.98 2.66 8.96 3.32 11 4 C7.88089144 5.79275866 5.32317572 6.34290718 1.75 6.625 C0.85796875 6.69976562 -0.0340625 6.77453125 -0.953125 6.8515625 C-1.62859375 6.90054688 -2.3040625 6.94953125 -3 7 C-2.01 6.67 -1.02 6.34 0 6 C0 4.02 0 2.04 0 0 Z " fill="#B39C59" transform="translate(124,107)"/>
<path d="M0 0 C1 2 1 2 0.125 4.6875 C-0.24625 5.780625 -0.6175 6.87375 -1 8 C-1.37531446 10.32694964 -1.71917202 12.65976685 -2 15 C-2.66 14.67 -3.32 14.34 -4 14 C-3.66009167 8.62007164 -3.31442207 4.46726453 0 0 Z " fill="#067039" transform="translate(59,72)"/>
<path d="M0 0 C2.31 0 4.62 0 7 0 C7.33 0.66 7.66 1.32 8 2 C4.91709845 6.22797927 4.91709845 6.22797927 3 8 C0.1875 8.375 0.1875 8.375 -2 8 C2.75 3.125 2.75 3.125 5 2 C3.35 1.67 1.7 1.34 0 1 C0 0.67 0 0.34 0 0 Z " fill="#237C51" transform="translate(81,56)"/>
<path d="M0 0 C5.40329973 0.48029331 5.40329973 0.48029331 7.9375 2.6875 C9.36056506 5.78475925 8.81133498 7.75466007 8 11 C7.67 11 7.34 11 7 11 C7 9.35 7 7.7 7 6 C6.34 6 5.68 6 5 6 C4.731875 5.195625 4.46375 4.39125 4.1875 3.5625 C3.795625 2.716875 3.40375 1.87125 3 1 C2.01 0.67 1.02 0.34 0 0 Z " fill="#B8A664" transform="translate(90,36)"/>
<path d="M0 0 C1.9375 0.3125 1.9375 0.3125 4 1 C4.33 1.99 4.66 2.98 5 4 C5.99 4.33 6.98 4.66 8 5 C8.33 5.99 8.66 6.98 9 8 C5.59687262 6.94124926 2.98646769 5.99097846 0 4 C0 2.68 0 1.36 0 0 Z " fill="#BCAA72" transform="translate(37,102)"/>
<path d="M0 0 C1.98 0.99 1.98 0.99 4 2 C3.649375 2.9075 3.29875 3.815 2.9375 4.75 C2.03531221 7.87758436 1.86618493 9.05208081 3 12 C2.34 12 1.68 12 1 12 C-0.26237731 9.47524538 -0.09856404 7.68799534 -0.0625 4.875 C-0.05347656 3.96492188 -0.04445313 3.05484375 -0.03515625 2.1171875 C-0.02355469 1.41851562 -0.01195313 0.71984375 0 0 Z " fill="#D1AA55" transform="translate(83,102)"/>
<path d="M0 0 C1.4606285 2.64738916 2 3.89448334 2 7 C2.99 7 3.98 7 5 7 C5 8.32 5 9.64 5 11 C4.01 11.33 3.02 11.66 2 12 C2 10.68 2 9.36 2 8 C1.01 8 0.02 8 -1 8 C-0.67 5.36 -0.34 2.72 0 0 Z " fill="#BEA265" transform="translate(261,91)"/>
<path d="M0 0 C2.64 0 5.28 0 8 0 C7.34 1.32 6.68 2.64 6 4 C3.69 3.67 1.38 3.34 -1 3 C-0.67 2.01 -0.34 1.02 0 0 Z " fill="#F0CD8D" transform="translate(315,74)"/>
<path d="M0 0 C0 1.32 0 2.64 0 4 C-1.65 4.33 -3.3 4.66 -5 5 C-4.34 5.33 -3.68 5.66 -3 6 C-5.97 5.505 -5.97 5.505 -9 5 C-8.67 4.01 -8.34 3.02 -8 2 C-5.27366306 0.89786379 -2.95855967 0 0 0 Z " fill="#DEBB6F" transform="translate(177,97)"/>
<path d="M0 0 C1.65 0 3.3 0 5 0 C5.66 1.98 6.32 3.96 7 6 C5.35 6 3.7 6 2 6 C1.34 4.02 0.68 2.04 0 0 Z " fill="#DEB866" transform="translate(303,89)"/>
<path d="M0 0 C0.556875 0.309375 1.11375 0.61875 1.6875 0.9375 C4.12540433 2.05761821 6.36224186 2.56037364 9 3 C8.67 4.32 8.34 5.64 8 7 C7.34 7 6.68 7 6 7 C6 6.01 6 5.02 6 4 C4.02 4 2.04 4 0 4 C0 2.68 0 1.36 0 0 Z " fill="#9A8A5A" transform="translate(212,95)"/>
<path d="M0 0 C2 3.75 2 3.75 2 6 C0.35 6.33 -1.3 6.66 -3 7 C-3 7.66 -3 8.32 -3 9 C-4.32 8.67 -5.64 8.34 -7 8 C-6.34 7.67 -5.68 7.34 -5 7 C-3.86649466 4.98330173 -3.86649466 4.98330173 -3 3 C-2.01 3.33 -1.02 3.66 0 4 C0 2.68 0 1.36 0 0 Z " fill="#C8A65F" transform="translate(230,93)"/>
<path d="M0 0 C0.99 0 1.98 0 3 0 C3 1.65 3 3.3 3 5 C1.68 5.33 0.36 5.66 -1 6 C-1.625 4.125 -1.625 4.125 -2 2 C-1.34 1.34 -0.68 0.68 0 0 Z " fill="#E7C572" transform="translate(293,87)"/>
<path d="M0 0 C2.31 0 4.62 0 7 0 C7.38218767 1.65614657 7.71395102 3.32457024 8 5 C7 6 7 6 3.4375 6.0625 C2.303125 6.041875 1.16875 6.02125 0 6 C0 5.67 0 5.34 0 5 C0.804375 4.87625 1.60875 4.7525 2.4375 4.625 C3.283125 4.41875 4.12875 4.2125 5 4 C5.33 3.34 5.66 2.68 6 2 C3.03 1.505 3.03 1.505 0 1 C0 0.67 0 0.34 0 0 Z " fill="#A29477" transform="translate(212,72)"/>
<path d="M0 0 C0 3 0 3 -1.9375 5 C-2.618125 5.66 -3.29875 6.32 -4 7 C-4.33 7.99 -4.66 8.98 -5 10 C-5.66 10 -6.32 10 -7 10 C-7 8.02 -7 6.04 -7 4 C-6.030625 3.525625 -5.06125 3.05125 -4.0625 2.5625 C-1.19522563 1.29806053 -1.19522563 1.29806053 0 0 Z " fill="#A0904A" transform="translate(110,38)"/>
<path d="M0 0 C0.99 0 1.98 0 3 0 C3.33 0.99 3.66 1.98 4 3 C3.01 3.495 3.01 3.495 2 4 C0.86649466 6.01669827 0.86649466 6.01669827 0 8 C-0.66 7.34 -1.32 6.68 -2 6 C-1.44444444 1.44444444 -1.44444444 1.44444444 0 0 Z " fill="#EBCB72" transform="translate(90,37)"/>
<path d="M0 0 C4.455 0.99 4.455 0.99 9 2 C5.79619983 4.13586678 4.98060033 4.23132175 1.3125 4.125 C0.10013672 4.09792969 0.10013672 4.09792969 -1.13671875 4.0703125 C-2.05904297 4.03550781 -2.05904297 4.03550781 -3 4 C-2.01 2.68 -1.02 1.36 0 0 Z " fill="#EFD38F" transform="translate(115,110)"/>
<path d="M0 0 C4.62 0 9.24 0 14 0 C13.34 1.98 12.68 3.96 12 6 C11.67 6 11.34 6 11 6 C11 4.35 11 2.7 11 1 C7.37 1.33 3.74 1.66 0 2 C0 1.34 0 0.68 0 0 Z " fill="#938561" transform="translate(185,85)"/>
<path d="M0 0 C1.32 0.33 2.64 0.66 4 1 C3.125 5.75 3.125 5.75 2 8 C1.34 8 0.68 8 0 8 C0 5.36 0 2.72 0 0 Z " fill="#D8C68A" transform="translate(276,73)"/>
<path d="M0 0 C2.82405426 0.05637858 3.75432284 0.08136713 6.0625 1.8125 C6.5575 2.555 6.5575 2.555 7.0625 3.3125 C4.28253893 3.3125 1.63757433 3.09952071 -1.125 2.8125 C-2.47658203 2.67328125 -2.47658203 2.67328125 -3.85546875 2.53125 C-4.54253906 2.4590625 -5.22960937 2.386875 -5.9375 2.3125 C-3.9375 0.3125 -3.9375 0.3125 0 0 Z " fill="#AA9C74" transform="translate(320.9375,71.6875)"/>
<path d="M0 0 C1.27609323 0.90933009 2.54565553 1.82782853 3.8125 2.75 C4.87404297 3.51570313 4.87404297 3.51570313 5.95703125 4.296875 C8.02977691 6.02482358 9.47375854 7.78526476 11 10 C10.67 10.66 10.34 11.32 10 12 C9.2575 11.05125 8.515 10.1025 7.75 9.125 C6.08616915 7.10193295 5.12405211 6.06202606 2.75 4.875 C2.1725 4.58625 1.595 4.2975 1 4 C0.390625 1.9453125 0.390625 1.9453125 0 0 Z " fill="#136E3F" transform="translate(128,59)"/>
<path d="M0 0 C0.33 0 0.66 0 1 0 C1.07347656 1.06541016 1.07347656 1.06541016 1.1484375 2.15234375 C1.22320312 3.07144531 1.29796875 3.99054688 1.375 4.9375 C1.44460938 5.85402344 1.51421875 6.77054687 1.5859375 7.71484375 C1.72257812 8.46894531 1.85921875 9.22304687 2 10 C2.66 10.33 3.32 10.66 4 11 C2.02 11.99 2.02 11.99 0 13 C-1.29676812 8.38926889 -0.71109139 4.66159911 0 0 Z " fill="#B69152" transform="translate(303,90)"/>
<path d="M0 0 C0.33 0 0.66 0 1 0 C1 2.64 1 5.28 1 8 C-0.32 8.33 -1.64 8.66 -3 9 C-3 8.34 -3 7.68 -3 7 C-5.31 7 -7.62 7 -10 7 C-10 6.67 -10 6.34 -10 6 C-6.7 6 -3.4 6 0 6 C0 4.02 0 2.04 0 0 Z " fill="#226640" transform="translate(144,83)"/>
<path d="M0 0 C1.32 0.33 2.64 0.66 4 1 C4 2.65 4 4.3 4 6 C3.01 6.33 2.02 6.66 1 7 C0.67 4.69 0.34 2.38 0 0 Z " fill="#EBC87A" transform="translate(270,81)"/>
<path d="M0 0 C0.66 0.33 1.32 0.66 2 1 C1.34 4.63 0.68 8.26 0 12 C-0.33 11.01 -0.66 10.02 -1 9 C-1.66 8.67 -2.32 8.34 -3 8 C-2.5359375 7.13375 -2.5359375 7.13375 -2.0625 6.25 C-1.07416636 4.15705816 -0.4831387 2.25464725 0 0 Z " fill="#DBBF79" transform="translate(310,82)"/>
<path d="M0 0 C0.66 0.33 1.32 0.66 2 1 C1.34 2.32 0.68 3.64 0 5 C0.99 5.33 1.98 5.66 3 6 C1.02 6.99 1.02 6.99 -1 8 C-3 5 -3 5 -3 2 C-2.01 1.34 -1.02 0.68 0 0 Z " fill="#B6A16A" transform="translate(313,74)"/>
<path d="M0 0 C2.625 -0.1875 2.625 -0.1875 5 0 C3.02 2.31 1.04 4.62 -1 7 C-1.33 5.68 -1.66 4.36 -2 3 C-1.34 2.01 -0.68 1.02 0 0 Z " fill="#23784C" transform="translate(65,63)"/>
<path d="M0 0 C1.875 0.5 1.875 0.5 4 2 C4.98494554 4.65177645 5.45912382 7.20547307 6 10 C5.34 10 4.68 10 4 10 C4 8.68 4 7.36 4 6 C3.34 6 2.68 6 2 6 C1.34 4.02 0.68 2.04 0 0 Z " fill="#C3B27C" transform="translate(242,73)"/>
<path d="M0 0 C1.32 0.66 2.64 1.32 4 2 C3.67 3.32 3.34 4.64 3 6 C1.35 5.67 -0.3 5.34 -2 5 C-2 4.01 -2 3.02 -2 2 C-1.34 2 -0.68 2 0 2 C0 1.34 0 0.68 0 0 Z " fill="#F2D594" transform="translate(175,74)"/>
<path d="M0 0 C0.66 0.33 1.32 0.66 2 1 C1.41196203 4.02419525 0.77321882 7.01758453 0 10 C-2.14915785 6.77626323 -2.38286803 5.73296326 -2 2 C-1.34 1.34 -0.68 0.68 0 0 Z " fill="#AC9C67" transform="translate(88,37)"/>
<path d="M0 0 C0.66 0.33 1.32 0.66 2 1 C0.7260411 3.03833424 -0.61061923 5.03852126 -2 7 C-2.66 7 -3.32 7 -4 7 C-4.33 5.35 -4.66 3.7 -5 2 C-3.35 2 -1.7 2 0 2 C0 1.34 0 0.68 0 0 Z " fill="#B6A468" transform="translate(124,37)"/>
<path d="M0 0 C1.4606285 2.64738916 2 3.89448334 2 7 C1.1646875 6.01 1.1646875 6.01 0.3125 5 C-1.84062308 2.74507789 -1.84062308 2.74507789 -4.75 2.75 C-5.86375 2.87375 -5.86375 2.87375 -7 3 C-7 2.34 -7 1.68 -7 1 C-3.535 0.505 -3.535 0.505 0 0 Z " fill="#AB9A6D" transform="translate(287,75)"/>
<path d="M0 0 C-1.28965176 1.37562854 -2.62689293 2.70766393 -4 4 C-4.66 4 -5.32 4 -6 4 C-6 3.34 -6 2.68 -6 2 C-6.99 1.67 -7.98 1.34 -9 1 C-6.04335481 -0.4783226 -3.25770263 -0.06032783 0 0 Z " fill="#98D1B2" transform="translate(87,57)"/>
<path d="M0 0 C0.66 0.66 1.32 1.32 2 2 C3.98821313 2.39764263 5.98944339 2.73775349 8 3 C8 3.33 8 3.66 8 4 C6.54364629 4.22174933 5.08477044 4.42698698 3.625 4.625 C2.81289062 4.74101563 2.00078125 4.85703125 1.1640625 4.9765625 C0.44992188 4.98429687 -0.26421875 4.99203125 -1 5 C-1.66 4.34 -2.32 3.68 -3 3 C-2.34 3 -1.68 3 -1 3 C-0.67 2.01 -0.34 1.02 0 0 Z " fill="#CEBB76" transform="translate(108,44)"/>
<path d="M0 0 C0 0.99 0 1.98 0 3 C0.66 3.33 1.32 3.66 2 4 C1.67 4.66 1.34 5.32 1 6 C0.34 6 -0.32 6 -1 6 C-1.33 5.34 -1.66 4.68 -2 4 C-2.99 4.495 -2.99 4.495 -4 5 C-4 3.68 -4 2.36 -4 1 C-2 0 -2 0 0 0 Z " fill="#F1CE79" transform="translate(106,35)"/>
<path d="M0 0 C0.66 0 1.32 0 2 0 C2.66 1.32 3.32 2.64 4 4 C2.35 4.33 0.7 4.66 -1 5 C-1 1 -1 1 0 0 Z " fill="#D1AC5C" transform="translate(257,98)"/>
<path d="M0 0 C1.65 0 3.3 0 5 0 C5 2.31 5 4.62 5 7 C4.67 6.34 4.34 5.68 4 5 C3.34 5 2.68 5 2 5 C1.34 3.35 0.68 1.7 0 0 Z " fill="#E5C575" transform="translate(324,86)"/>
<path d="M0 0 C1.125 1.6875 1.125 1.6875 2 4 C1.125 6.75 1.125 6.75 0 9 C-0.66 9 -1.32 9 -2 9 C-1.51421457 5.87709365 -1.0013988 3.00419641 0 0 Z " fill="#207E4F" transform="translate(71,75)"/>
<path d="M0 0 C1.65 0 3.3 0 5 0 C5 1.32 5 2.64 5 4 C3.35 4 1.7 4 0 4 C0 2.68 0 1.36 0 0 Z " fill="#DBC991" transform="translate(200,73)"/>
<path d="M0 0 C1 2 1 2 0.375 4 C-1.39265071 6.57112831 -3.07589059 7.07659703 -6 8 C-4.55746343 4.63408134 -2.66735273 2.48952921 0 0 Z " fill="#187B4A" transform="translate(57,63)"/>
<path d="M0 0 C-3.8503105 2.56687367 -5.58569763 1.83288724 -10 1 C-10 0.67 -10 0.34 -10 0 C-6.30458414 -0.95024979 -3.69541586 -0.95024979 0 0 Z " fill="#DDB965" transform="translate(290,100)"/>
<path d="M0 0 C1.32 0.33 2.64 0.66 4 1 C3.67 2.98 3.34 4.96 3 7 C2.34 7 1.68 7 1 7 C0.67 4.69 0.34 2.38 0 0 Z " fill="#E9BD71" transform="translate(270,86)"/>
<path d="M0 0 C0.66 0.33 1.32 0.66 2 1 C0.84826645 3.46800047 -0.04783565 5.04783565 -2 7 C-2.99 7 -3.98 7 -5 7 C-3.70700306 4.11562221 -2.34058637 2.12780579 0 0 Z " fill="#B2A176" transform="translate(274,74)"/>
<path d="M0 0 C2.31 0.33 4.62 0.66 7 1 C7.33 2.65 7.66 4.3 8 6 C4.63408134 4.55746343 2.48952921 2.66735273 0 0 Z " fill="#998750" transform="translate(269,97)"/>
<path d="M0 0 C2.99324263 1.0975223 3.84610901 1.67682892 5.25 4.625 C5.4975 5.40875 5.745 6.1925 6 7 C4 7 4 7 1.875 5.1875 C0 3 0 3 0 0 Z " fill="#A08E5F" transform="translate(155,95)"/>
<path d="M0 0 C0 0.66 0 1.32 0 2 C-3.37817425 2.84454356 -5.67465243 3.10844919 -9 2 C-5.62902617 0.50178941 -3.79557881 0 0 0 Z " fill="#B3A16E" transform="translate(124,21)"/>
</svg>
